solid Inlet4
 facet normal  9.848078e-01 -1.070536e-10  1.736482e-01
   outer loop
     vertex -2.294480e-01 -1.311546e-01  1.932143e-01
     vertex -2.290166e-01 -1.309818e-01  1.907678e-01
     vertex -2.292360e-01 -1.288238e-01  1.920117e-01
   endloop
 endfacet
 facet normal  9.848078e-01 -7.906949e-12  1.736482e-01
   outer loop
     vertex -2.290166e-01 -1.309818e-01  1.907678e-01
     vertex -2.285928e-01 -1.304863e-01  1.883644e-01
     vertex -2.288441e-01 -1.284189e-01  1.897895e-01
   endloop
 endfacet
 facet normal  9.848078e-01 -7.823429e-12  1.736482e-01
   outer loop
     vertex -2.290166e-01 -1.309818e-01  1.907678e-01
     vertex -2.288441e-01 -1.284189e-01  1.897895e-01
     vertex -2.292360e-01 -1.288238e-01  1.920117e-01
   endloop
 endfacet
 facet normal  9.848078e-01 -7.528230e-12  1.736482e-01
   outer loop
     vertex -2.285928e-01 -1.304863e-01  1.883644e-01
     vertex -2.281839e-01 -1.296764e-01  1.860453e-01
     vertex -2.284339e-01 -1.276909e-01  1.874632e-01
   endloop
 endfacet
 facet normal  9.848078e-01 -7.433499e-12  1.736482e-01
   outer loop
     vertex -2.285928e-01 -1.304863e-01  1.883644e-01
     vertex -2.284339e-01 -1.276909e-01  1.874632e-01
     vertex -2.288441e-01 -1.284189e-01  1.897895e-01
   endloop
 endfacet
 facet normal  9.848078e-01 -7.687272e-12  1.736482e-01
   outer loop
     vertex -2.281839e-01 -1.296764e-01  1.860453e-01
     vertex -2.277969e-01 -1.285661e-01  1.838502e-01
     vertex -2.279472e-01 -1.265696e-01  1.847029e-01
   endloop
 endfacet
 facet normal  9.848078e-01 -7.289197e-12  1.736482e-01
   outer loop
     vertex -2.281839e-01 -1.296764e-01  1.860453e-01
     vertex -2.279472e-01 -1.265696e-01  1.847029e-01
     vertex -2.284339e-01 -1.276909e-01  1.874632e-01
   endloop
 endfacet
 facet normal  9.848078e-01 -7.233379e-12  1.736482e-01
   outer loop
     vertex -2.277969e-01 -1.285661e-01  1.838502e-01
     vertex -2.274383e-01 -1.271744e-01  1.818166e-01
     vertex -2.279472e-01 -1.265696e-01  1.847029e-01
   endloop
 endfacet
 facet normal  9.848078e-01 -7.338567e-12  1.736482e-01
   outer loop
     vertex -2.274383e-01 -1.271744e-01  1.818166e-01
     vertex -2.271143e-01 -1.255250e-01  1.799792e-01
     vertex -2.275350e-01 -1.251224e-01  1.823651e-01
   endloop
 endfacet
 facet normal  9.848078e-01 -5.070470e-12  1.736482e-01
   outer loop
     vertex -2.271143e-01 -1.255250e-01  1.799792e-01
     vertex -2.268305e-01 -1.236463e-01  1.783696e-01
     vertex -2.273174e-01 -1.231751e-01  1.811311e-01
   endloop
 endfacet
 facet normal  9.848078e-01 -4.502010e-12  1.736482e-01
   outer loop
     vertex -2.271143e-01 -1.255250e-01  1.799792e-01
     vertex -2.273174e-01 -1.231751e-01  1.811311e-01
     vertex -2.275350e-01 -1.251224e-01  1.823651e-01
   endloop
 endfacet
 facet normal  9.848078e-01 -4.108040e-12  1.736482e-01
   outer loop
     vertex -2.268305e-01 -1.236463e-01  1.783696e-01
     vertex -2.265917e-01 -1.215702e-01  1.770153e-01
     vertex -2.270507e-01 -1.209888e-01  1.796187e-01
   endloop
 endfacet
 facet normal  9.848078e-01 -4.202077e-12  1.736482e-01
   outer loop
     vertex -2.268305e-01 -1.236463e-01  1.783696e-01
     vertex -2.270507e-01 -1.209888e-01  1.796187e-01
     vertex -2.273174e-01 -1.231751e-01  1.811311e-01
   endloop
 endfacet
 facet normal  9.848078e-01 -3.679449e-12  1.736482e-01
   outer loop
     vertex -2.265917e-01 -1.215702e-01  1.770153e-01
     vertex -2.264020e-01 -1.193324e-01  1.759394e-01
     vertex -2.267583e-01 -1.184287e-01  1.779601e-01
   endloop
 endfacet
 facet normal  9.848078e-01 -4.085322e-12  1.736482e-01
   outer loop
     vertex -2.265917e-01 -1.215702e-01  1.770153e-01
     vertex -2.267583e-01 -1.184287e-01  1.779601e-01
     vertex -2.270507e-01 -1.209888e-01  1.796187e-01
   endloop
 endfacet
 facet normal  9.848078e-01 -2.695505e-12  1.736482e-01
   outer loop
     vertex -2.264020e-01 -1.193324e-01  1.759394e-01
     vertex -2.262646e-01 -1.169712e-01  1.751603e-01
     vertex -2.267583e-01 -1.184287e-01  1.779601e-01
   endloop
 endfacet
 facet normal  9.848078e-01 -1.573594e-12  1.736482e-01
   outer loop
     vertex -2.262646e-01 -1.169712e-01  1.751603e-01
     vertex -2.261819e-01 -1.145269e-01  1.746915e-01
     vertex -2.266272e-01 -1.155943e-01  1.772164e-01
   endloop
 endfacet
 facet normal  9.848078e-01 -5.293110e-13  1.736482e-01
   outer loop
     vertex -2.261819e-01 -1.145269e-01  1.746915e-01
     vertex -2.261554e-01 -1.120414e-01  1.745408e-01
     vertex -2.265830e-01 -1.131176e-01  1.769662e-01
   endloop
 endfacet
 facet normal  9.848078e-01 -8.225142e-13  1.736482e-01
   outer loop
     vertex -2.261819e-01 -1.145269e-01  1.746915e-01
     vertex -2.265830e-01 -1.131176e-01  1.769662e-01
     vertex -2.266272e-01 -1.155943e-01  1.772164e-01
   endloop
 endfacet
 facet normal  9.848078e-01  4.981799e-13  1.736482e-01
   outer loop
     vertex -2.261554e-01 -1.120414e-01  1.745408e-01
     vertex -2.261854e-01 -1.095572e-01  1.747110e-01
     vertex -2.265833e-01 -1.105828e-01  1.769679e-01
   endloop
 endfacet
 facet normal  9.848078e-01 -4.554368e-14  1.736482e-01
   outer loop
     vertex -2.261554e-01 -1.120414e-01  1.745408e-01
     vertex -2.265833e-01 -1.105828e-01  1.769679e-01
     vertex -2.265830e-01 -1.131176e-01  1.769662e-01
   endloop
 endfacet
 facet normal  9.848078e-01  1.696294e-12  1.736482e-01
   outer loop
     vertex -2.261854e-01 -1.095572e-01  1.747110e-01
     vertex -2.262714e-01 -1.071167e-01  1.751990e-01
     vertex -2.266268e-01 -1.076580e-01  1.772147e-01
   endloop
 endfacet
 facet normal  9.848078e-01  6.250741e-13  1.736482e-01
   outer loop
     vertex -2.261854e-01 -1.095572e-01  1.747110e-01
     vertex -2.266268e-01 -1.076580e-01  1.772147e-01
     vertex -2.265833e-01 -1.105828e-01  1.769679e-01
   endloop
 endfacet
 facet normal  9.848078e-01  2.817264e-12  1.736482e-01
   outer loop
     vertex -2.262714e-01 -1.071167e-01  1.751990e-01
     vertex -2.264121e-01 -1.047619e-01  1.759966e-01
     vertex -2.266268e-01 -1.076580e-01  1.772147e-01
   endloop
 endfacet
 facet normal  9.848078e-01  3.583754e-12  1.736482e-01
   outer loop
     vertex -2.264121e-01 -1.047619e-01  1.759966e-01
     vertex -2.266049e-01 -1.025329e-01  1.770900e-01
     vertex -2.268290e-01 -1.050457e-01  1.783612e-01
   endloop
 endfacet
 facet normal  9.848078e-01  4.169459e-12  1.736482e-01
   outer loop
     vertex -2.266049e-01 -1.025329e-01  1.770900e-01
     vertex -2.268465e-01 -1.004679e-01  1.784606e-01
     vertex -2.270692e-01 -1.029665e-01  1.797235e-01
   endloop
 endfacet
 facet normal  9.848078e-01  4.113692e-12  1.736482e-01
   outer loop
     vertex -2.266049e-01 -1.025329e-01  1.770900e-01
     vertex -2.270692e-01 -1.029665e-01  1.797235e-01
     vertex -2.268290e-01 -1.050457e-01  1.783612e-01
   endloop
 endfacet
 facet normal  9.848078e-01  4.961337e-12  1.736482e-01
   outer loop
     vertex -2.268465e-01 -1.004679e-01  1.784606e-01
     vertex -2.271329e-01 -9.860216e-02  1.800849e-01
     vertex -2.273449e-01 -1.009263e-01  1.812867e-01
   endloop
 endfacet
 facet normal  9.848078e-01  4.432748e-12  1.736482e-01
   outer loop
     vertex -2.268465e-01 -1.004679e-01  1.784606e-01
     vertex -2.273449e-01 -1.009263e-01  1.812867e-01
     vertex -2.270692e-01 -1.029665e-01  1.797235e-01
   endloop
 endfacet
 facet normal  9.848078e-01  6.398661e-12  1.736482e-01
   outer loop
     vertex -2.271329e-01 -9.860216e-02  1.800849e-01
     vertex -2.274592e-01 -9.696772e-02  1.819351e-01
     vertex -2.276871e-01 -9.870912e-02  1.832276e-01
   endloop
 endfacet
 facet normal  9.848078e-01  4.967996e-12  1.736482e-01
   outer loop
     vertex -2.271329e-01 -9.860216e-02  1.800849e-01
     vertex -2.276871e-01 -9.870912e-02  1.832276e-01
     vertex -2.273449e-01 -1.009263e-01  1.812867e-01
   endloop
 endfacet
 facet normal  9.848078e-01  7.067107e-12  1.736482e-01
   outer loop
     vertex -2.274592e-01 -9.696772e-02  1.819351e-01
     vertex -2.278197e-01 -9.559248e-02  1.839796e-01
     vertex -2.276871e-01 -9.870912e-02  1.832276e-01
   endloop
 endfacet
 facet normal  9.848078e-01  7.066059e-12  1.736482e-01
   outer loop
     vertex -2.278197e-01 -9.559248e-02  1.839796e-01
     vertex -2.282083e-01 -9.450000e-02  1.861834e-01
     vertex -2.281248e-01 -9.734827e-02  1.857097e-01
   endloop
 endfacet
 facet normal  9.848078e-01  6.876010e-12  1.736482e-01
   outer loop
     vertex -2.282083e-01 -9.450000e-02  1.861834e-01
     vertex -2.286183e-01 -9.370895e-02  1.885088e-01
     vertex -2.285362e-01 -9.654884e-02  1.880430e-01
   endloop
 endfacet
 facet normal  9.848078e-01  6.872748e-12  1.736482e-01
   outer loop
     vertex -2.282083e-01 -9.450000e-02  1.861834e-01
     vertex -2.285362e-01 -9.654884e-02  1.880430e-01
     vertex -2.281248e-01 -9.734827e-02  1.857097e-01
   endloop
 endfacet
 facet normal  9.848078e-01  7.091203e-12  1.736482e-01
   outer loop
     vertex -2.286183e-01 -9.370895e-02  1.885088e-01
     vertex -2.290427e-01 -9.323286e-02  1.909159e-01
     vertex -2.289728e-01 -9.591365e-02  1.905192e-01
   endloop
 endfacet
 facet normal  9.848078e-01  6.777421e-12  1.736482e-01
   outer loop
     vertex -2.286183e-01 -9.370895e-02  1.885088e-01
     vertex -2.289728e-01 -9.591365e-02  1.905192e-01
     vertex -2.285362e-01 -9.654884e-02  1.880430e-01
   endloop
 endfacet
 facet normal  9.848078e-01  8.029221e-12  1.736482e-01
   outer loop
     vertex -2.290427e-01 -9.323286e-02  1.909159e-01
     vertex -2.294744e-01 -9.307990e-02  1.933637e-01
     vertex -2.294888e-01 -9.537389e-02  1.934457e-01
   endloop
 endfacet
 facet normal  9.848078e-01  7.076322e-12  1.736482e-01
   outer loop
     vertex -2.290427e-01 -9.323286e-02  1.909159e-01
     vertex -2.294888e-01 -9.537389e-02  1.934457e-01
     vertex -2.289728e-01 -9.591365e-02  1.905192e-01
   endloop
 endfacet
 facet normal  9.848078e-01  8.067427e-12  1.736482e-01
   outer loop
     vertex -2.294744e-01 -9.307990e-02  1.933637e-01
     vertex -2.299057e-01 -9.325267e-02  1.958102e-01
     vertex -2.294888e-01 -9.537389e-02  1.934457e-01
   endloop
 endfacet
 facet normal  9.848078e-01  7.877057e-12  1.736482e-01
   outer loop
     vertex -2.299057e-01 -9.325267e-02  1.958102e-01
     vertex -2.303295e-01 -9.374822e-02  1.982135e-01
     vertex -2.299947e-01 -9.570046e-02  1.963148e-01
   endloop
 endfacet
 facet normal  9.848078e-01  7.495126e-12  1.736482e-01
   outer loop
     vertex -2.303295e-01 -9.374822e-02  1.982135e-01
     vertex -2.307384e-01 -9.455807e-02  2.005326e-01
     vertex -2.304003e-01 -9.635295e-02  1.986151e-01
   endloop
 endfacet
 facet normal  9.848078e-01  7.415904e-12  1.736482e-01
   outer loop
     vertex -2.303295e-01 -9.374822e-02  1.982135e-01
     vertex -2.304003e-01 -9.635295e-02  1.986151e-01
     vertex -2.299947e-01 -9.570046e-02  1.963148e-01
   endloop
 endfacet
 facet normal  9.848078e-01  6.841233e-12  1.736482e-01
   outer loop
     vertex -2.307384e-01 -9.455807e-02  2.005326e-01
     vertex -2.311255e-01 -9.566836e-02  2.027278e-01
     vertex -2.307924e-01 -9.740959e-02  2.008389e-01
   endloop
 endfacet
 facet normal  9.848078e-01  6.817446e-12  1.736482e-01
   outer loop
     vertex -2.307384e-01 -9.455807e-02  2.005326e-01
     vertex -2.307924e-01 -9.740959e-02  2.008389e-01
     vertex -2.304003e-01 -9.635295e-02  1.986151e-01
   endloop
 endfacet
 facet normal  9.848078e-01  6.883483e-12  1.736482e-01
   outer loop
     vertex -2.311255e-01 -9.566836e-02  2.027278e-01
     vertex -2.314841e-01 -9.706010e-02  2.047614e-01
     vertex -2.312466e-01 -9.881832e-02  2.034144e-01
   endloop
 endfacet
 facet normal  9.848078e-01  6.649156e-12  1.736482e-01
   outer loop
     vertex -2.311255e-01 -9.566836e-02  2.027278e-01
     vertex -2.312466e-01 -9.881832e-02  2.034144e-01
     vertex -2.307924e-01 -9.740959e-02  2.008389e-01
   endloop
 endfacet
 facet normal  9.848078e-01  6.208960e-12  1.736482e-01
   outer loop
     vertex -2.314841e-01 -9.706010e-02  2.047614e-01
     vertex -2.318080e-01 -9.870946e-02  2.065987e-01
     vertex -2.312466e-01 -9.881832e-02  2.034144e-01
   endloop
 endfacet
 facet normal  9.848078e-01  5.004641e-12  1.736482e-01
   outer loop
     vertex -2.318080e-01 -9.870946e-02  2.065987e-01
     vertex -2.320919e-01 -1.005882e-01  2.082084e-01
     vertex -2.315924e-01 -1.009559e-01  2.053758e-01
   endloop
 endfacet
 facet normal  9.848078e-01  3.966686e-12  1.736482e-01
   outer loop
     vertex -2.320919e-01 -1.005882e-01  2.082084e-01
     vertex -2.323307e-01 -1.026643e-01  2.095627e-01
     vertex -2.318428e-01 -1.030470e-01  2.067958e-01
   endloop
 endfacet
 facet normal  9.848078e-01  4.048470e-12  1.736482e-01
   outer loop
     vertex -2.320919e-01 -1.005882e-01  2.082084e-01
     vertex -2.318428e-01 -1.030470e-01  2.067958e-01
     vertex -2.315924e-01 -1.009559e-01  2.053758e-01
   endloop
 endfacet
 facet normal  9.848078e-01  3.207210e-12  1.736482e-01
   outer loop
     vertex -2.323307e-01 -1.026643e-01  2.095627e-01
     vertex -2.325204e-01 -1.049021e-01  2.106386e-01
     vertex -2.320687e-01 -1.052895e-01  2.080768e-01
   endloop
 endfacet
 facet normal  9.848078e-01  3.505961e-12  1.736482e-01
   outer loop
     vertex -2.323307e-01 -1.026643e-01  2.095627e-01
     vertex -2.320687e-01 -1.052895e-01  2.080768e-01
     vertex -2.318428e-01 -1.030470e-01  2.067958e-01
   endloop
 endfacet
 facet normal  9.848078e-01  2.608337e-12  1.736482e-01
   outer loop
     vertex -2.325204e-01 -1.049021e-01  2.106386e-01
     vertex -2.326577e-01 -1.072633e-01  2.114176e-01
     vertex -2.322928e-01 -1.079906e-01  2.093479e-01
   endloop
 endfacet
 facet normal  9.848078e-01  3.137538e-12  1.736482e-01
   outer loop
     vertex -2.325204e-01 -1.049021e-01  2.106386e-01
     vertex -2.322928e-01 -1.079906e-01  2.093479e-01
     vertex -2.320687e-01 -1.052895e-01  2.080768e-01
   endloop
 endfacet
 facet normal  9.848078e-01  1.560889e-12  1.736482e-01
   outer loop
     vertex -2.326577e-01 -1.072633e-01  2.114176e-01
     vertex -2.327404e-01 -1.097076e-01  2.118865e-01
     vertex -2.322928e-01 -1.079906e-01  2.093479e-01
   endloop
 endfacet
 facet normal  9.848078e-01  4.729643e-13  1.736482e-01
   outer loop
     vertex -2.327404e-01 -1.097076e-01  2.118865e-01
     vertex -2.327670e-01 -1.121931e-01  2.120371e-01
     vertex -2.323742e-01 -1.108626e-01  2.098098e-01
   endloop
 endfacet
 facet normal  9.848078e-01 -6.342538e-13  1.736482e-01
   outer loop
     vertex -2.327670e-01 -1.121931e-01  2.120371e-01
     vertex -2.327370e-01 -1.146773e-01  2.118670e-01
     vertex -2.323716e-01 -1.132395e-01  2.097948e-01
   endloop
 endfacet
 facet normal  9.848078e-01 -9.088426e-14  1.736482e-01
   outer loop
     vertex -2.327670e-01 -1.121931e-01  2.120371e-01
     vertex -2.323716e-01 -1.132395e-01  2.097948e-01
     vertex -2.323742e-01 -1.108626e-01  2.098098e-01
   endloop
 endfacet
 facet normal  9.848078e-01 -1.658105e-12  1.736482e-01
   outer loop
     vertex -2.327370e-01 -1.146773e-01  2.118670e-01
     vertex -2.326509e-01 -1.171178e-01  2.113789e-01
     vertex -2.322964e-01 -1.156386e-01  2.093682e-01
   endloop
 endfacet
 facet normal  9.848078e-01 -1.467676e-12  1.736482e-01
   outer loop
     vertex -2.327370e-01 -1.146773e-01  2.118670e-01
     vertex -2.322964e-01 -1.156386e-01  2.093682e-01
     vertex -2.323716e-01 -1.132395e-01  2.097948e-01
   endloop
 endfacet
 facet normal  9.848078e-01 -2.753324e-12  1.736482e-01
   outer loop
     vertex -2.326509e-01 -1.171178e-01  2.113789e-01
     vertex -2.325103e-01 -1.194726e-01  2.105814e-01
     vertex -2.321597e-01 -1.185079e-01  2.085931e-01
   endloop
 endfacet
 facet normal  9.848078e-01 -2.129152e-12  1.736482e-01
   outer loop
     vertex -2.326509e-01 -1.171178e-01  2.113789e-01
     vertex -2.321597e-01 -1.185079e-01  2.085931e-01
     vertex -2.322964e-01 -1.156386e-01  2.093682e-01
   endloop
 endfacet
 facet normal  9.848078e-01 -3.749619e-12  1.736482e-01
   outer loop
     vertex -2.325103e-01 -1.194726e-01  2.105814e-01
     vertex -2.323175e-01 -1.217016e-01  2.094880e-01
     vertex -2.321597e-01 -1.185079e-01  2.085931e-01
   endloop
 endfacet
 facet normal  9.848078e-01 -4.267303e-12  1.736482e-01
   outer loop
     vertex -2.323175e-01 -1.217016e-01  2.094880e-01
     vertex -2.320758e-01 -1.237666e-01  2.081174e-01
     vertex -2.318826e-01 -1.210211e-01  2.070215e-01
   endloop
 endfacet
 facet normal  9.848078e-01 -4.994360e-12  1.736482e-01
   outer loop
     vertex -2.320758e-01 -1.237666e-01  2.081174e-01
     vertex -2.317894e-01 -1.256323e-01  2.064931e-01
     vertex -2.316116e-01 -1.230393e-01  2.054844e-01
   endloop
 endfacet
 facet normal  9.848078e-01 -4.480449e-12  1.736482e-01
   outer loop
     vertex -2.320758e-01 -1.237666e-01  2.081174e-01
     vertex -2.316116e-01 -1.230393e-01  2.054844e-01
     vertex -2.318826e-01 -1.210211e-01  2.070215e-01
   endloop
 endfacet
 facet normal  9.848078e-01 -5.986067e-12  1.736482e-01
   outer loop
     vertex -2.317894e-01 -1.256323e-01  2.064931e-01
     vertex -2.314632e-01 -1.272668e-01  2.046428e-01
     vertex -2.313171e-01 -1.248760e-01  2.038146e-01
   endloop
 endfacet
 facet normal  9.848078e-01 -5.058923e-12  1.736482e-01
   outer loop
     vertex -2.317894e-01 -1.256323e-01  2.064931e-01
     vertex -2.313171e-01 -1.248760e-01  2.038146e-01
     vertex -2.316116e-01 -1.230393e-01  2.054844e-01
   endloop
 endfacet
 facet normal  9.848078e-01 -7.031961e-12  1.736482e-01
   outer loop
     vertex -2.314632e-01 -1.272668e-01  2.046428e-01
     vertex -2.311027e-01 -1.286420e-01  2.025983e-01
     vertex -2.309235e-01 -1.266716e-01  2.015822e-01
   endloop
 endfacet
 facet normal  9.848078e-01 -6.118027e-12  1.736482e-01
   outer loop
     vertex -2.314632e-01 -1.272668e-01  2.046428e-01
     vertex -2.309235e-01 -1.266716e-01  2.015822e-01
     vertex -2.313171e-01 -1.248760e-01  2.038146e-01
   endloop
 endfacet
 facet normal  9.848078e-01 -7.541587e-12  1.736482e-01
   outer loop
     vertex -2.311027e-01 -1.286420e-01  2.025983e-01
     vertex -2.307141e-01 -1.297345e-01  2.003945e-01
     vertex -2.309235e-01 -1.266716e-01  2.015822e-01
   endloop
 endfacet
 facet normal  9.848078e-01 -7.134960e-12  1.736482e-01
   outer loop
     vertex -2.307141e-01 -1.297345e-01  2.003945e-01
     vertex -2.303041e-01 -1.305256e-01  1.980692e-01
     vertex -2.304430e-01 -1.276382e-01  1.988572e-01
   endloop
 endfacet
 facet normal  9.848078e-01 -7.423311e-12  1.736482e-01
   outer loop
     vertex -2.303041e-01 -1.305256e-01  1.980692e-01
     vertex -2.298796e-01 -1.310016e-01  1.956620e-01
     vertex -2.300239e-01 -1.283220e-01  1.964802e-01
   endloop
 endfacet
 facet normal  9.848078e-01 -7.025155e-12  1.736482e-01
   outer loop
     vertex -2.303041e-01 -1.305256e-01  1.980692e-01
     vertex -2.300239e-01 -1.283220e-01  1.964802e-01
     vertex -2.304430e-01 -1.276382e-01  1.988572e-01
   endloop
 endfacet
 facet normal  9.848078e-01 -1.189565e-10  1.736482e-01
   outer loop
     vertex -2.298796e-01 -1.310016e-01  1.956620e-01
     vertex -2.294480e-01 -1.311546e-01  1.932143e-01
     vertex -2.296258e-01 -1.287781e-01  1.942225e-01
   endloop
 endfacet
 facet normal  9.848078e-01 -7.433905e-12  1.736482e-01
   outer loop
     vertex -2.300239e-01 -1.283220e-01  1.964802e-01
     vertex -2.298796e-01 -1.310016e-01  1.956620e-01
     vertex -2.296258e-01 -1.287781e-01  1.942225e-01
   endloop
 endfacet
 facet normal  9.848078e-01 -1.930942e-10  1.736482e-01
   outer loop
     vertex -2.294480e-01 -1.311546e-01  1.932143e-01
     vertex -2.292360e-01 -1.288238e-01  1.920117e-01
     vertex -2.296258e-01 -1.287781e-01  1.942225e-01
   endloop
 endfacet
 facet normal  9.848078e-01 -7.803655e-12  1.736482e-01
   outer loop
     vertex -2.279472e-01 -1.265696e-01  1.847029e-01
     vertex -2.274383e-01 -1.271744e-01  1.818166e-01
     vertex -2.275350e-01 -1.251224e-01  1.823651e-01
   endloop
 endfacet
 facet normal  9.848078e-01 -2.056541e-12  1.736482e-01
   outer loop
     vertex -2.267583e-01 -1.184287e-01  1.779601e-01
     vertex -2.262646e-01 -1.169712e-01  1.751603e-01
     vertex -2.266272e-01 -1.155943e-01  1.772164e-01
   endloop
 endfacet
 facet normal  9.848078e-01  3.226113e-12  1.736482e-01
   outer loop
     vertex -2.266268e-01 -1.076580e-01  1.772147e-01
     vertex -2.264121e-01 -1.047619e-01  1.759966e-01
     vertex -2.268290e-01 -1.050457e-01  1.783612e-01
   endloop
 endfacet
 facet normal  9.848078e-01  6.821444e-12  1.736482e-01
   outer loop
     vertex -2.276871e-01 -9.870912e-02  1.832276e-01
     vertex -2.278197e-01 -9.559248e-02  1.839796e-01
     vertex -2.281248e-01 -9.734827e-02  1.857097e-01
   endloop
 endfacet
 facet normal  9.848078e-01  7.719442e-12  1.736482e-01
   outer loop
     vertex -2.294888e-01 -9.537389e-02  1.934457e-01
     vertex -2.299057e-01 -9.325267e-02  1.958102e-01
     vertex -2.299947e-01 -9.570046e-02  1.963148e-01
   endloop
 endfacet
 facet normal  9.848078e-01  5.137045e-12  1.736482e-01
   outer loop
     vertex -2.312466e-01 -9.881832e-02  2.034144e-01
     vertex -2.318080e-01 -9.870946e-02  2.065987e-01
     vertex -2.315924e-01 -1.009559e-01  2.053758e-01
   endloop
 endfacet
 facet normal  9.848078e-01  1.265965e-12  1.736482e-01
   outer loop
     vertex -2.322928e-01 -1.079906e-01  2.093479e-01
     vertex -2.327404e-01 -1.097076e-01  2.118865e-01
     vertex -2.323742e-01 -1.108626e-01  2.098098e-01
   endloop
 endfacet
 facet normal  9.848078e-01 -4.063984e-12  1.736482e-01
   outer loop
     vertex -2.321597e-01 -1.185079e-01  2.085931e-01
     vertex -2.323175e-01 -1.217016e-01  2.094880e-01
     vertex -2.318826e-01 -1.210211e-01  2.070215e-01
   endloop
 endfacet
 facet normal  9.848078e-01 -7.072547e-12  1.736482e-01
   outer loop
     vertex -2.309235e-01 -1.266716e-01  2.015822e-01
     vertex -2.307141e-01 -1.297345e-01  2.003945e-01
     vertex -2.304430e-01 -1.276382e-01  1.988572e-01
   endloop
 endfacet
 facet normal  9.848078e-01 -5.084854e-14  1.736482e-01
   outer loop
     vertex -2.292360e-01 -1.288238e-01  1.920117e-01
     vertex -2.288441e-01 -1.284189e-01  1.897895e-01
     vertex -2.290862e-01 -1.266103e-01  1.911625e-01
   endloop
 endfacet
 facet normal  9.848078e-01 -4.302872e-14  1.736482e-01
   outer loop
     vertex -2.267583e-01 -1.184287e-01  1.779601e-01
     vertex -2.266272e-01 -1.155943e-01  1.772164e-01
     vertex -2.270094e-01 -1.164141e-01  1.793842e-01
   endloop
 endfacet
 facet normal  9.848078e-01 -5.143807e-14  1.736482e-01
   outer loop
     vertex -2.270507e-01 -1.209888e-01  1.796187e-01
     vertex -2.267583e-01 -1.184287e-01  1.779601e-01
     vertex -2.272582e-01 -1.183626e-01  1.807950e-01
   endloop
 endfacet
 facet normal  9.848078e-01 -4.908086e-14  1.736482e-01
   outer loop
     vertex -2.267583e-01 -1.184287e-01  1.779601e-01
     vertex -2.270094e-01 -1.164141e-01  1.793842e-01
     vertex -2.272582e-01 -1.183626e-01  1.807950e-01
   endloop
 endfacet
 facet normal  9.848078e-01 -4.803321e-14  1.736482e-01
   outer loop
     vertex -2.273174e-01 -1.231751e-01  1.811311e-01
     vertex -2.270507e-01 -1.209888e-01  1.796187e-01
     vertex -2.275432e-01 -1.207080e-01  1.824116e-01
   endloop
 endfacet
 facet normal  9.848078e-01 -4.413785e-14  1.736482e-01
   outer loop
     vertex -2.270507e-01 -1.209888e-01  1.796187e-01
     vertex -2.272582e-01 -1.183626e-01  1.807950e-01
     vertex -2.275432e-01 -1.207080e-01  1.824116e-01
   endloop
 endfacet
 facet normal  9.848078e-01 -5.357004e-14  1.736482e-01
   outer loop
     vertex -2.275350e-01 -1.251224e-01  1.823651e-01
     vertex -2.273174e-01 -1.231751e-01  1.811311e-01
     vertex -2.278540e-01 -1.233292e-01  1.841743e-01
   endloop
 endfacet
 facet normal  9.848078e-01 -4.983802e-14  1.736482e-01
   outer loop
     vertex -2.273174e-01 -1.231751e-01  1.811311e-01
     vertex -2.275432e-01 -1.207080e-01  1.824116e-01
     vertex -2.278540e-01 -1.233292e-01  1.841743e-01
   endloop
 endfacet
 facet normal  9.848078e-01 -4.609675e-14  1.736482e-01
   outer loop
     vertex -2.266268e-01 -1.076580e-01  1.772147e-01
     vertex -2.268290e-01 -1.050457e-01  1.783612e-01
     vertex -2.270095e-01 -1.070632e-01  1.793850e-01
   endloop
 endfacet
 facet normal  9.848078e-01 -4.331292e-14  1.736482e-01
   outer loop
     vertex -2.265833e-01 -1.105828e-01  1.769679e-01
     vertex -2.266268e-01 -1.076580e-01  1.772147e-01
     vertex -2.269840e-01 -1.092818e-01  1.792400e-01
   endloop
 endfacet
 facet normal  9.848078e-01 -4.802492e-14  1.736482e-01
   outer loop
     vertex -2.266268e-01 -1.076580e-01  1.772147e-01
     vertex -2.270095e-01 -1.070632e-01  1.793850e-01
     vertex -2.269840e-01 -1.092818e-01  1.792400e-01
   endloop
 endfacet
 facet normal  9.848078e-01 -5.061352e-14  1.736482e-01
   outer loop
     vertex -2.265830e-01 -1.131176e-01  1.769662e-01
     vertex -2.265833e-01 -1.105828e-01  1.769679e-01
     vertex -2.269633e-01 -1.117810e-01  1.791228e-01
   endloop
 endfacet
 facet normal  9.848078e-01 -4.486955e-14  1.736482e-01
   outer loop
     vertex -2.265833e-01 -1.105828e-01  1.769679e-01
     vertex -2.269840e-01 -1.092818e-01  1.792400e-01
     vertex -2.269633e-01 -1.117810e-01  1.791228e-01
   endloop
 endfacet
 facet normal  9.848078e-01 -4.713924e-14  1.736482e-01
   outer loop
     vertex -2.266272e-01 -1.155943e-01  1.772164e-01
     vertex -2.265830e-01 -1.131176e-01  1.769662e-01
     vertex -2.269784e-01 -1.141925e-01  1.792085e-01
   endloop
 endfacet
 facet normal  9.848078e-01 -5.109683e-14  1.736482e-01
   outer loop
     vertex -2.270094e-01 -1.164141e-01  1.793842e-01
     vertex -2.266272e-01 -1.155943e-01  1.772164e-01
     vertex -2.269784e-01 -1.141925e-01  1.792085e-01
   endloop
 endfacet
 facet normal  9.848078e-01 -4.262795e-14  1.736482e-01
   outer loop
     vertex -2.265830e-01 -1.131176e-01  1.769662e-01
     vertex -2.269633e-01 -1.117810e-01  1.791228e-01
     vertex -2.269784e-01 -1.141925e-01  1.792085e-01
   endloop
 endfacet
 facet normal  9.848078e-01 -5.742522e-14  1.736482e-01
   outer loop
     vertex -2.276871e-01 -9.870912e-02  1.832276e-01
     vertex -2.281248e-01 -9.734827e-02  1.857097e-01
     vertex -2.280588e-01 -9.962429e-02  1.853358e-01
   endloop
 endfacet
 facet normal  9.848078e-01 -5.023897e-14  1.736482e-01
   outer loop
     vertex -2.273449e-01 -1.009263e-01  1.812867e-01
     vertex -2.276871e-01 -9.870912e-02  1.832276e-01
     vertex -2.278082e-01 -1.013541e-01  1.839143e-01
   endloop
 endfacet
 facet normal  9.848078e-01 -4.749288e-14  1.736482e-01
   outer loop
     vertex -2.276871e-01 -9.870912e-02  1.832276e-01
     vertex -2.280588e-01 -9.962429e-02  1.853358e-01
     vertex -2.278082e-01 -1.013541e-01  1.839143e-01
   endloop
 endfacet
 facet normal  9.848078e-01 -4.194325e-14  1.736482e-01
   outer loop
     vertex -2.270692e-01 -1.029665e-01  1.797235e-01
     vertex -2.273449e-01 -1.009263e-01  1.812867e-01
     vertex -2.275273e-01 -1.034130e-01  1.823216e-01
   endloop
 endfacet
 facet normal  9.848078e-01 -4.532913e-14  1.736482e-01
   outer loop
     vertex -2.273449e-01 -1.009263e-01  1.812867e-01
     vertex -2.278082e-01 -1.013541e-01  1.839143e-01
     vertex -2.275273e-01 -1.034130e-01  1.823216e-01
   endloop
 endfacet
 facet normal  9.848078e-01 -5.588073e-14  1.736482e-01
   outer loop
     vertex -2.268290e-01 -1.050457e-01  1.783612e-01
     vertex -2.270692e-01 -1.029665e-01  1.797235e-01
     vertex -2.272513e-01 -1.053981e-01  1.807563e-01
   endloop
 endfacet
 facet normal  9.848078e-01 -4.594047e-14  1.736482e-01
   outer loop
     vertex -2.270095e-01 -1.070632e-01  1.793850e-01
     vertex -2.268290e-01 -1.050457e-01  1.783612e-01
     vertex -2.272513e-01 -1.053981e-01  1.807563e-01
   endloop
 endfacet
 facet normal  9.848078e-01 -5.406303e-14  1.736482e-01
   outer loop
     vertex -2.270692e-01 -1.029665e-01  1.797235e-01
     vertex -2.275273e-01 -1.034130e-01  1.823216e-01
     vertex -2.272513e-01 -1.053981e-01  1.807563e-01
   endloop
 endfacet
 facet normal  9.848078e-01 -4.943319e-14  1.736482e-01
   outer loop
     vertex -2.294888e-01 -9.537389e-02  1.934457e-01
     vertex -2.299947e-01 -9.570046e-02  1.963148e-01
     vertex -2.297343e-01 -9.775774e-02  1.948380e-01
   endloop
 endfacet
 facet normal  9.848078e-01 -4.261000e-14  1.736482e-01
   outer loop
     vertex -2.289728e-01 -9.591365e-02  1.905192e-01
     vertex -2.294888e-01 -9.537389e-02  1.934457e-01
     vertex -2.292964e-01 -9.799333e-02  1.923547e-01
   endloop
 endfacet
 facet normal  9.848078e-01 -4.304071e-14  1.736482e-01
   outer loop
     vertex -2.294888e-01 -9.537389e-02  1.934457e-01
     vertex -2.297343e-01 -9.775774e-02  1.948380e-01
     vertex -2.292964e-01 -9.799333e-02  1.923547e-01
   endloop
 endfacet
 facet normal  9.848078e-01 -4.613428e-14  1.736482e-01
   outer loop
     vertex -2.285362e-01 -9.654884e-02  1.880430e-01
     vertex -2.289728e-01 -9.591365e-02  1.905192e-01
     vertex -2.288553e-01 -9.858911e-02  1.898530e-01
   endloop
 endfacet
 facet normal  9.848078e-01 -4.678422e-14  1.736482e-01
   outer loop
     vertex -2.289728e-01 -9.591365e-02  1.905192e-01
     vertex -2.292964e-01 -9.799333e-02  1.923547e-01
     vertex -2.288553e-01 -9.858911e-02  1.898530e-01
   endloop
 endfacet
 facet normal  9.848078e-01 -4.817840e-14  1.736482e-01
   outer loop
     vertex -2.281248e-01 -9.734827e-02  1.857097e-01
     vertex -2.285362e-01 -9.654884e-02  1.880430e-01
     vertex -2.284274e-01 -9.916359e-02  1.874259e-01
   endloop
 endfacet
 facet normal  9.848078e-01 -5.754233e-14  1.736482e-01
   outer loop
     vertex -2.280588e-01 -9.962429e-02  1.853358e-01
     vertex -2.281248e-01 -9.734827e-02  1.857097e-01
     vertex -2.284274e-01 -9.916359e-02  1.874259e-01
   endloop
 endfacet
 facet normal  9.848078e-01 -4.472798e-14  1.736482e-01
   outer loop
     vertex -2.285362e-01 -9.654884e-02  1.880430e-01
     vertex -2.288553e-01 -9.858911e-02  1.898530e-01
     vertex -2.284274e-01 -9.916359e-02  1.874259e-01
   endloop
 endfacet
 facet normal  9.848078e-01 -4.803346e-14  1.736482e-01
   outer loop
     vertex -2.312466e-01 -9.881832e-02  2.034144e-01
     vertex -2.315924e-01 -1.009559e-01  2.053758e-01
     vertex -2.311789e-01 -1.012556e-01  2.030307e-01
   endloop
 endfacet
 facet normal  9.848078e-01 -4.740394e-14  1.736482e-01
   outer loop
     vertex -2.307924e-01 -9.740959e-02  2.008389e-01
     vertex -2.312466e-01 -9.881832e-02  2.034144e-01
     vertex -2.308189e-01 -1.001535e-01  2.009888e-01
   endloop
 endfacet
 facet normal  9.848078e-01 -4.735041e-14  1.736482e-01
   outer loop
     vertex -2.312466e-01 -9.881832e-02  2.034144e-01
     vertex -2.311789e-01 -1.012556e-01  2.030307e-01
     vertex -2.308189e-01 -1.001535e-01  2.009888e-01
   endloop
 endfacet
 facet normal  9.848078e-01 -4.518874e-14  1.736482e-01
   outer loop
     vertex -2.304003e-01 -9.635295e-02  1.986151e-01
     vertex -2.307924e-01 -9.740959e-02  2.008389e-01
     vertex -2.304286e-01 -9.891033e-02  1.987754e-01
   endloop
 endfacet
 facet normal  9.848078e-01 -4.713367e-14  1.736482e-01
   outer loop
     vertex -2.307924e-01 -9.740959e-02  2.008389e-01
     vertex -2.308189e-01 -1.001535e-01  2.009888e-01
     vertex -2.304286e-01 -9.891033e-02  1.987754e-01
   endloop
 endfacet
 facet normal  9.848078e-01 -5.008591e-14  1.736482e-01
   outer loop
     vertex -2.299947e-01 -9.570046e-02  1.963148e-01
     vertex -2.304003e-01 -9.635295e-02  1.986151e-01
     vertex -2.301091e-01 -9.777102e-02  1.969636e-01
   endloop
 endfacet
 facet normal  9.848078e-01 -5.101375e-14  1.736482e-01
   outer loop
     vertex -2.297343e-01 -9.775774e-02  1.948380e-01
     vertex -2.299947e-01 -9.570046e-02  1.963148e-01
     vertex -2.301091e-01 -9.777102e-02  1.969636e-01
   endloop
 endfacet
 facet normal  9.848078e-01 -4.574311e-14  1.736482e-01
   outer loop
     vertex -2.304003e-01 -9.635295e-02  1.986151e-01
     vertex -2.304286e-01 -9.891033e-02  1.987754e-01
     vertex -2.301091e-01 -9.777102e-02  1.969636e-01
   endloop
 endfacet
 facet normal  9.848078e-01 -5.248864e-14  1.736482e-01
   outer loop
     vertex -2.322928e-01 -1.079906e-01  2.093479e-01
     vertex -2.323742e-01 -1.108626e-01  2.098098e-01
     vertex -2.319819e-01 -1.099909e-01  2.075848e-01
   endloop
 endfacet
 facet normal  9.848078e-01 -4.533938e-14  1.736482e-01
   outer loop
     vertex -2.320687e-01 -1.052895e-01  2.080768e-01
     vertex -2.322928e-01 -1.079906e-01  2.093479e-01
     vertex -2.318294e-01 -1.076858e-01  2.067200e-01
   endloop
 endfacet
 facet normal  9.848078e-01 -5.174006e-14  1.736482e-01
   outer loop
     vertex -2.322928e-01 -1.079906e-01  2.093479e-01
     vertex -2.319819e-01 -1.099909e-01  2.075848e-01
     vertex -2.318294e-01 -1.076858e-01  2.067200e-01
   endloop
 endfacet
 facet normal  9.848078e-01 -5.002266e-14  1.736482e-01
   outer loop
     vertex -2.318428e-01 -1.030470e-01  2.067958e-01
     vertex -2.320687e-01 -1.052895e-01  2.080768e-01
     vertex -2.316077e-01 -1.054611e-01  2.054625e-01
   endloop
 endfacet
 facet normal  9.848078e-01 -4.561950e-14  1.736482e-01
   outer loop
     vertex -2.320687e-01 -1.052895e-01  2.080768e-01
     vertex -2.318294e-01 -1.076858e-01  2.067200e-01
     vertex -2.316077e-01 -1.054611e-01  2.054625e-01
   endloop
 endfacet
 facet normal  9.848078e-01 -4.301636e-14  1.736482e-01
   outer loop
     vertex -2.315924e-01 -1.009559e-01  2.053758e-01
     vertex -2.318428e-01 -1.030470e-01  2.067958e-01
     vertex -2.313742e-01 -1.032698e-01  2.041384e-01
   endloop
 endfacet
 facet normal  9.848078e-01 -4.680001e-14  1.736482e-01
   outer loop
     vertex -2.311789e-01 -1.012556e-01  2.030307e-01
     vertex -2.315924e-01 -1.009559e-01  2.053758e-01
     vertex -2.313742e-01 -1.032698e-01  2.041384e-01
   endloop
 endfacet
 facet normal  9.848078e-01 -4.644080e-14  1.736482e-01
   outer loop
     vertex -2.318428e-01 -1.030470e-01  2.067958e-01
     vertex -2.316077e-01 -1.054611e-01  2.054625e-01
     vertex -2.313742e-01 -1.032698e-01  2.041384e-01
   endloop
 endfacet
 facet normal  9.848078e-01 -4.776758e-14  1.736482e-01
   outer loop
     vertex -2.321597e-01 -1.185079e-01  2.085931e-01
     vertex -2.318826e-01 -1.210211e-01  2.070215e-01
     vertex -2.316978e-01 -1.185595e-01  2.059733e-01
   endloop
 endfacet
 facet normal  9.848078e-01 -4.608882e-14  1.736482e-01
   outer loop
     vertex -2.322964e-01 -1.156386e-01  2.093682e-01
     vertex -2.321597e-01 -1.185079e-01  2.085931e-01
     vertex -2.318763e-01 -1.163441e-01  2.069856e-01
   endloop
 endfacet
 facet normal  9.848078e-01 -5.000059e-14  1.736482e-01
   outer loop
     vertex -2.321597e-01 -1.185079e-01  2.085931e-01
     vertex -2.316978e-01 -1.185595e-01  2.059733e-01
     vertex -2.318763e-01 -1.163441e-01  2.069856e-01
   endloop
 endfacet
 facet normal  9.848078e-01 -4.819551e-14  1.736482e-01
   outer loop
     vertex -2.323716e-01 -1.132395e-01  2.097948e-01
     vertex -2.322964e-01 -1.156386e-01  2.093682e-01
     vertex -2.319766e-01 -1.140127e-01  2.075545e-01
   endloop
 endfacet
 facet normal  9.848078e-01 -4.868257e-14  1.736482e-01
   outer loop
     vertex -2.322964e-01 -1.156386e-01  2.093682e-01
     vertex -2.318763e-01 -1.163441e-01  2.069856e-01
     vertex -2.319766e-01 -1.140127e-01  2.075545e-01
   endloop
 endfacet
 facet normal  9.848078e-01 -3.841668e-14  1.736482e-01
   outer loop
     vertex -2.323742e-01 -1.108626e-01  2.098098e-01
     vertex -2.323716e-01 -1.132395e-01  2.097948e-01
     vertex -2.320748e-01 -1.120153e-01  2.081116e-01
   endloop
 endfacet
 facet normal  9.848078e-01 -4.982136e-14  1.736482e-01
   outer loop
     vertex -2.319819e-01 -1.099909e-01  2.075848e-01
     vertex -2.323742e-01 -1.108626e-01  2.098098e-01
     vertex -2.320748e-01 -1.120153e-01  2.081116e-01
   endloop
 endfacet
 facet normal  9.848078e-01 -4.014619e-14  1.736482e-01
   outer loop
     vertex -2.323716e-01 -1.132395e-01  2.097948e-01
     vertex -2.319766e-01 -1.140127e-01  2.075545e-01
     vertex -2.320748e-01 -1.120153e-01  2.081116e-01
   endloop
 endfacet
 facet normal  9.848078e-01 -4.441694e-14  1.736482e-01
   outer loop
     vertex -2.309235e-01 -1.266716e-01  2.015822e-01
     vertex -2.304430e-01 -1.276382e-01  1.988572e-01
     vertex -2.305549e-01 -1.249303e-01  1.994919e-01
   endloop
 endfacet
 facet normal  9.848078e-01 -5.655962e-14  1.736482e-01
   outer loop
     vertex -2.313171e-01 -1.248760e-01  2.038146e-01
     vertex -2.309235e-01 -1.266716e-01  2.015822e-01
     vertex -2.309300e-01 -1.242182e-01  2.016190e-01
   endloop
 endfacet
 facet normal  9.848078e-01 -5.651968e-14  1.736482e-01
   outer loop
     vertex -2.309235e-01 -1.266716e-01  2.015822e-01
     vertex -2.305549e-01 -1.249303e-01  1.994919e-01
     vertex -2.309300e-01 -1.242182e-01  2.016190e-01
   endloop
 endfacet
 facet normal  9.848078e-01 -4.132622e-14  1.736482e-01
   outer loop
     vertex -2.316116e-01 -1.230393e-01  2.054844e-01
     vertex -2.313171e-01 -1.248760e-01  2.038146e-01
     vertex -2.311684e-01 -1.224540e-01  2.029710e-01
   endloop
 endfacet
 facet normal  9.848078e-01 -3.910894e-14  1.736482e-01
   outer loop
     vertex -2.313171e-01 -1.248760e-01  2.038146e-01
     vertex -2.309300e-01 -1.242182e-01  2.016190e-01
     vertex -2.311684e-01 -1.224540e-01  2.029710e-01
   endloop
 endfacet
 facet normal  9.848078e-01 -4.935654e-14  1.736482e-01
   outer loop
     vertex -2.318826e-01 -1.210211e-01  2.070215e-01
     vertex -2.316116e-01 -1.230393e-01  2.054844e-01
     vertex -2.314430e-01 -1.205439e-01  2.045283e-01
   endloop
 endfacet
 facet normal  9.848078e-01 -4.091632e-14  1.736482e-01
   outer loop
     vertex -2.316978e-01 -1.185595e-01  2.059733e-01
     vertex -2.318826e-01 -1.210211e-01  2.070215e-01
     vertex -2.314430e-01 -1.205439e-01  2.045283e-01
   endloop
 endfacet
 facet normal  9.848078e-01 -5.399604e-14  1.736482e-01
   outer loop
     vertex -2.316116e-01 -1.230393e-01  2.054844e-01
     vertex -2.311684e-01 -1.224540e-01  2.029710e-01
     vertex -2.314430e-01 -1.205439e-01  2.045283e-01
   endloop
 endfacet
 facet normal  9.848078e-01 -4.806073e-14  1.736482e-01
   outer loop
     vertex -2.304430e-01 -1.276382e-01  1.988572e-01
     vertex -2.300239e-01 -1.283220e-01  1.964802e-01
     vertex -2.301384e-01 -1.256955e-01  1.971295e-01
   endloop
 endfacet
 facet normal  9.848078e-01 -4.491268e-14  1.736482e-01
   outer loop
     vertex -2.304430e-01 -1.276382e-01  1.988572e-01
     vertex -2.301384e-01 -1.256955e-01  1.971295e-01
     vertex -2.305549e-01 -1.249303e-01  1.994919e-01
   endloop
 endfacet
 facet normal  9.848078e-01 -5.105502e-14  1.736482e-01
   outer loop
     vertex -2.279472e-01 -1.265696e-01  1.847029e-01
     vertex -2.275350e-01 -1.251224e-01  1.823651e-01
     vertex -2.278540e-01 -1.233292e-01  1.841743e-01
   endloop
 endfacet
 facet normal  9.848078e-01 -3.797802e-14  1.736482e-01
   outer loop
     vertex -2.288441e-01 -1.284189e-01  1.897895e-01
     vertex -2.284339e-01 -1.276909e-01  1.874632e-01
     vertex -2.287153e-01 -1.259792e-01  1.890589e-01
   endloop
 endfacet
 facet normal  9.848078e-01 -3.997466e-14  1.736482e-01
   outer loop
     vertex -2.288441e-01 -1.284189e-01  1.897895e-01
     vertex -2.287153e-01 -1.259792e-01  1.890589e-01
     vertex -2.290862e-01 -1.266103e-01  1.911625e-01
   endloop
 endfacet
 facet normal  9.848078e-01 -4.995613e-14  1.736482e-01
   outer loop
     vertex -2.284339e-01 -1.276909e-01  1.874632e-01
     vertex -2.279472e-01 -1.265696e-01  1.847029e-01
     vertex -2.283158e-01 -1.249661e-01  1.867931e-01
   endloop
 endfacet
 facet normal  9.848078e-01 -4.706703e-14  1.736482e-01
   outer loop
     vertex -2.284339e-01 -1.276909e-01  1.874632e-01
     vertex -2.283158e-01 -1.249661e-01  1.867931e-01
     vertex -2.287153e-01 -1.259792e-01  1.890589e-01
   endloop
 endfacet
 facet normal  9.848078e-01 -5.001655e-14  1.736482e-01
   outer loop
     vertex -2.279472e-01 -1.265696e-01  1.847029e-01
     vertex -2.278540e-01 -1.233292e-01  1.841743e-01
     vertex -2.283158e-01 -1.249661e-01  1.867931e-01
   endloop
 endfacet
 facet normal  9.848078e-01 -4.516047e-14  1.736482e-01
   outer loop
     vertex -2.301384e-01 -1.256955e-01  1.971295e-01
     vertex -2.300239e-01 -1.283220e-01  1.964802e-01
     vertex -2.297407e-01 -1.263811e-01  1.948744e-01
   endloop
 endfacet
 facet normal  9.848078e-01 -3.906288e-14  1.736482e-01
   outer loop
     vertex -2.300239e-01 -1.283220e-01  1.964802e-01
     vertex -2.296258e-01 -1.287781e-01  1.942225e-01
     vertex -2.297407e-01 -1.263811e-01  1.948744e-01
   endloop
 endfacet
 facet normal  9.848078e-01 -4.887241e-14  1.736482e-01
   outer loop
     vertex -2.296258e-01 -1.287781e-01  1.942225e-01
     vertex -2.292360e-01 -1.288238e-01  1.920117e-01
     vertex -2.294139e-01 -1.270630e-01  1.930207e-01
   endloop
 endfacet
 facet normal  9.848078e-01 -4.023330e-14  1.736482e-01
   outer loop
     vertex -2.297407e-01 -1.263811e-01  1.948744e-01
     vertex -2.296258e-01 -1.287781e-01  1.942225e-01
     vertex -2.294139e-01 -1.270630e-01  1.930207e-01
   endloop
 endfacet
 facet normal  9.848078e-01 -5.423797e-14  1.736482e-01
   outer loop
     vertex -2.292360e-01 -1.288238e-01  1.920117e-01
     vertex -2.290862e-01 -1.266103e-01  1.911625e-01
     vertex -2.294139e-01 -1.270630e-01  1.930207e-01
   endloop
 endfacet
 facet normal  9.848078e-01 -4.636021e-14  1.736482e-01
   outer loop
     vertex -2.305549e-01 -1.249303e-01  1.994919e-01
     vertex -2.301384e-01 -1.256955e-01  1.971295e-01
     vertex -2.302431e-01 -1.231307e-01  1.977232e-01
   endloop
 endfacet
 facet normal  9.848078e-01 -5.378880e-14  1.736482e-01
   outer loop
     vertex -2.290862e-01 -1.266103e-01  1.911625e-01
     vertex -2.287153e-01 -1.259792e-01  1.890589e-01
     vertex -2.289773e-01 -1.246225e-01  1.905448e-01
   endloop
 endfacet
 facet normal  9.848078e-01 -4.407164e-14  1.736482e-01
   outer loop
     vertex -2.275432e-01 -1.207080e-01  1.824116e-01
     vertex -2.272582e-01 -1.183626e-01  1.807950e-01
     vertex -2.277425e-01 -1.180205e-01  1.835417e-01
   endloop
 endfacet
 facet normal  9.848078e-01 -4.747404e-14  1.736482e-01
   outer loop
     vertex -2.278540e-01 -1.233292e-01  1.841743e-01
     vertex -2.275432e-01 -1.207080e-01  1.824116e-01
     vertex -2.280407e-01 -1.204295e-01  1.852329e-01
   endloop
 endfacet
 facet normal  9.848078e-01 -4.711948e-14  1.736482e-01
   outer loop
     vertex -2.275432e-01 -1.207080e-01  1.824116e-01
     vertex -2.277425e-01 -1.180205e-01  1.835417e-01
     vertex -2.280407e-01 -1.204295e-01  1.852329e-01
   endloop
 endfacet
 facet normal  9.848078e-01 -4.479515e-14  1.736482e-01
   outer loop
     vertex -2.269633e-01 -1.117810e-01  1.791228e-01
     vertex -2.269840e-01 -1.092818e-01  1.792400e-01
     vertex -2.273614e-01 -1.106088e-01  1.813803e-01
   endloop
 endfacet
 facet normal  9.848078e-01 -4.372806e-14  1.736482e-01
   outer loop
     vertex -2.278082e-01 -1.013541e-01  1.839143e-01
     vertex -2.280588e-01 -9.962429e-02  1.853358e-01
     vertex -2.282508e-01 -1.015570e-01  1.864246e-01
   endloop
 endfacet
 facet normal  9.848078e-01 -5.037439e-14  1.736482e-01
   outer loop
     vertex -2.275273e-01 -1.034130e-01  1.823216e-01
     vertex -2.278082e-01 -1.013541e-01  1.839143e-01
     vertex -2.279924e-01 -1.038207e-01  1.849590e-01
   endloop
 endfacet
 facet normal  9.848078e-01 -5.117593e-14  1.736482e-01
   outer loop
     vertex -2.278082e-01 -1.013541e-01  1.839143e-01
     vertex -2.282508e-01 -1.015570e-01  1.864246e-01
     vertex -2.279924e-01 -1.038207e-01  1.849590e-01
   endloop
 endfacet
 facet normal  9.848078e-01 -4.775082e-14  1.736482e-01
   outer loop
     vertex -2.292964e-01 -9.799333e-02  1.923547e-01
     vertex -2.297343e-01 -9.775774e-02  1.948380e-01
     vertex -2.295570e-01 -9.974898e-02  1.938322e-01
   endloop
 endfacet
 facet normal  9.848078e-01 -5.010233e-14  1.736482e-01
   outer loop
     vertex -2.288553e-01 -9.858911e-02  1.898530e-01
     vertex -2.292964e-01 -9.799333e-02  1.923547e-01
     vertex -2.291799e-01 -1.006157e-01  1.916938e-01
   endloop
 endfacet
 facet normal  9.848078e-01 -5.060523e-14  1.736482e-01
   outer loop
     vertex -2.292964e-01 -9.799333e-02  1.923547e-01
     vertex -2.295570e-01 -9.974898e-02  1.938322e-01
     vertex -2.291799e-01 -1.006157e-01  1.916938e-01
   endloop
 endfacet
 facet normal  9.848078e-01 -4.870118e-14  1.736482e-01
   outer loop
     vertex -2.308189e-01 -1.001535e-01  2.009888e-01
     vertex -2.311789e-01 -1.012556e-01  2.030307e-01
     vertex -2.308657e-01 -1.031106e-01  2.012543e-01
   endloop
 endfacet
 facet normal  9.848078e-01 -4.953559e-14  1.736482e-01
   outer loop
     vertex -2.304286e-01 -9.891033e-02  1.987754e-01
     vertex -2.308189e-01 -1.001535e-01  2.009888e-01
     vertex -2.304291e-01 -1.015555e-01  1.987785e-01
   endloop
 endfacet
 facet normal  9.848078e-01 -4.837919e-14  1.736482e-01
   outer loop
     vertex -2.308189e-01 -1.001535e-01  2.009888e-01
     vertex -2.308657e-01 -1.031106e-01  2.012543e-01
     vertex -2.304291e-01 -1.015555e-01  1.987785e-01
   endloop
 endfacet
 facet normal  9.848078e-01 -5.456761e-14  1.736482e-01
   outer loop
     vertex -2.318294e-01 -1.076858e-01  2.067200e-01
     vertex -2.319819e-01 -1.099909e-01  2.075848e-01
     vertex -2.316264e-01 -1.095679e-01  2.055684e-01
   endloop
 endfacet
 facet normal  9.848078e-01 -4.789027e-14  1.736482e-01
   outer loop
     vertex -2.269840e-01 -1.092818e-01  1.792400e-01
     vertex -2.270095e-01 -1.070632e-01  1.793850e-01
     vertex -2.273580e-01 -1.079265e-01  1.813615e-01
   endloop
 endfacet
 facet normal  9.848078e-01 -5.040439e-14  1.736482e-01
   outer loop
     vertex -2.269840e-01 -1.092818e-01  1.792400e-01
     vertex -2.273580e-01 -1.079265e-01  1.813615e-01
     vertex -2.273614e-01 -1.106088e-01  1.813803e-01
   endloop
 endfacet
 facet normal  9.848078e-01 -5.217354e-14  1.736482e-01
   outer loop
     vertex -2.316077e-01 -1.054611e-01  2.054625e-01
     vertex -2.318294e-01 -1.076858e-01  2.067200e-01
     vertex -2.313985e-01 -1.078206e-01  2.042759e-01
   endloop
 endfacet
 facet normal  9.848078e-01 -5.283021e-14  1.736482e-01
   outer loop
     vertex -2.318294e-01 -1.076858e-01  2.067200e-01
     vertex -2.316264e-01 -1.095679e-01  2.055684e-01
     vertex -2.313985e-01 -1.078206e-01  2.042759e-01
   endloop
 endfacet
 facet normal  9.848078e-01 -5.491415e-14  1.736482e-01
   outer loop
     vertex -2.318763e-01 -1.163441e-01  2.069856e-01
     vertex -2.316978e-01 -1.185595e-01  2.059733e-01
     vertex -2.315318e-01 -1.167203e-01  2.050318e-01
   endloop
 endfacet
 facet normal  9.848078e-01 -5.502974e-14  1.736482e-01
   outer loop
     vertex -2.272582e-01 -1.183626e-01  1.807950e-01
     vertex -2.270094e-01 -1.164141e-01  1.793842e-01
     vertex -2.274217e-01 -1.154321e-01  1.817226e-01
   endloop
 endfacet
 facet normal  9.848078e-01 -5.286627e-14  1.736482e-01
   outer loop
     vertex -2.272582e-01 -1.183626e-01  1.807950e-01
     vertex -2.274217e-01 -1.154321e-01  1.817226e-01
     vertex -2.277425e-01 -1.180205e-01  1.835417e-01
   endloop
 endfacet
 facet normal  9.848078e-01 -4.860013e-14  1.736482e-01
   outer loop
     vertex -2.319766e-01 -1.140127e-01  2.075545e-01
     vertex -2.318763e-01 -1.163441e-01  2.069856e-01
     vertex -2.315801e-01 -1.146724e-01  2.053057e-01
   endloop
 endfacet
 facet normal  9.848078e-01 -4.534003e-14  1.736482e-01
   outer loop
     vertex -2.318763e-01 -1.163441e-01  2.069856e-01
     vertex -2.315318e-01 -1.167203e-01  2.050318e-01
     vertex -2.315801e-01 -1.146724e-01  2.053057e-01
   endloop
 endfacet
 facet normal  9.848078e-01 -5.297470e-14  1.736482e-01
   outer loop
     vertex -2.309300e-01 -1.242182e-01  2.016190e-01
     vertex -2.305549e-01 -1.249303e-01  1.994919e-01
     vertex -2.306896e-01 -1.221391e-01  2.002557e-01
   endloop
 endfacet
 facet normal  9.848078e-01 -5.451980e-14  1.736482e-01
   outer loop
     vertex -2.305549e-01 -1.249303e-01  1.994919e-01
     vertex -2.302431e-01 -1.231307e-01  1.977232e-01
     vertex -2.306896e-01 -1.221391e-01  2.002557e-01
   endloop
 endfacet
 facet normal  9.848078e-01 -4.309743e-14  1.736482e-01
   outer loop
     vertex -2.311684e-01 -1.224540e-01  2.029710e-01
     vertex -2.309300e-01 -1.242182e-01  2.016190e-01
     vertex -2.306896e-01 -1.221391e-01  2.002557e-01
   endloop
 endfacet
 facet normal  9.848078e-01 -4.644965e-14  1.736482e-01
   outer loop
     vertex -2.287153e-01 -1.259792e-01  1.890589e-01
     vertex -2.283158e-01 -1.249661e-01  1.867931e-01
     vertex -2.286585e-01 -1.235176e-01  1.887369e-01
   endloop
 endfacet
 facet normal  9.848078e-01 -4.966582e-14  1.736482e-01
   outer loop
     vertex -2.287153e-01 -1.259792e-01  1.890589e-01
     vertex -2.286585e-01 -1.235176e-01  1.887369e-01
     vertex -2.289773e-01 -1.246225e-01  1.905448e-01
   endloop
 endfacet
 facet normal  9.848078e-01 -4.105769e-14  1.736482e-01
   outer loop
     vertex -2.283158e-01 -1.249661e-01  1.867931e-01
     vertex -2.278540e-01 -1.233292e-01  1.841743e-01
     vertex -2.282906e-01 -1.225325e-01  1.866501e-01
   endloop
 endfacet
 facet normal  9.848078e-01 -4.092643e-14  1.736482e-01
   outer loop
     vertex -2.286585e-01 -1.235176e-01  1.887369e-01
     vertex -2.283158e-01 -1.249661e-01  1.867931e-01
     vertex -2.282906e-01 -1.225325e-01  1.866501e-01
   endloop
 endfacet
 facet normal  9.848078e-01 -5.071506e-14  1.736482e-01
   outer loop
     vertex -2.278540e-01 -1.233292e-01  1.841743e-01
     vertex -2.280407e-01 -1.204295e-01  1.852329e-01
     vertex -2.282906e-01 -1.225325e-01  1.866501e-01
   endloop
 endfacet
 facet normal  9.848078e-01 -5.112967e-14  1.736482e-01
   outer loop
     vertex -2.290862e-01 -1.266103e-01  1.911625e-01
     vertex -2.289773e-01 -1.246225e-01  1.905448e-01
     vertex -2.293738e-01 -1.246816e-01  1.927932e-01
   endloop
 endfacet
 facet normal  9.848078e-01 -5.242436e-14  1.736482e-01
   outer loop
     vertex -2.290862e-01 -1.266103e-01  1.911625e-01
     vertex -2.293738e-01 -1.246816e-01  1.927932e-01
     vertex -2.294139e-01 -1.270630e-01  1.930207e-01
   endloop
 endfacet
 facet normal  9.848078e-01 -5.097400e-14  1.736482e-01
   outer loop
     vertex -2.274217e-01 -1.154321e-01  1.817226e-01
     vertex -2.270094e-01 -1.164141e-01  1.793842e-01
     vertex -2.269784e-01 -1.141925e-01  1.792085e-01
   endloop
 endfacet
 facet normal  9.848078e-01 -4.734610e-14  1.736482e-01
   outer loop
     vertex -2.269633e-01 -1.117810e-01  1.791228e-01
     vertex -2.273614e-01 -1.106088e-01  1.813803e-01
     vertex -2.272945e-01 -1.129276e-01  1.810010e-01
   endloop
 endfacet
 facet normal  9.848078e-01 -4.221979e-14  1.736482e-01
   outer loop
     vertex -2.269633e-01 -1.117810e-01  1.791228e-01
     vertex -2.272945e-01 -1.129276e-01  1.810010e-01
     vertex -2.269784e-01 -1.141925e-01  1.792085e-01
   endloop
 endfacet
 facet normal  9.848078e-01 -5.219864e-14  1.736482e-01
   outer loop
     vertex -2.316077e-01 -1.054611e-01  2.054625e-01
     vertex -2.313985e-01 -1.078206e-01  2.042759e-01
     vertex -2.311436e-01 -1.056491e-01  2.028307e-01
   endloop
 endfacet
 facet normal  9.848078e-01 -4.977674e-14  1.736482e-01
   outer loop
     vertex -2.316077e-01 -1.054611e-01  2.054625e-01
     vertex -2.311436e-01 -1.056491e-01  2.028307e-01
     vertex -2.313742e-01 -1.032698e-01  2.041384e-01
   endloop
 endfacet
 facet normal  9.848078e-01 -4.318808e-14  1.736482e-01
   outer loop
     vertex -2.302431e-01 -1.231307e-01  1.977232e-01
     vertex -2.301384e-01 -1.256955e-01  1.971295e-01
     vertex -2.298225e-01 -1.238020e-01  1.953379e-01
   endloop
 endfacet
 facet normal  9.848078e-01 -4.509458e-14  1.736482e-01
   outer loop
     vertex -2.301384e-01 -1.256955e-01  1.971295e-01
     vertex -2.297407e-01 -1.263811e-01  1.948744e-01
     vertex -2.298225e-01 -1.238020e-01  1.953379e-01
   endloop
 endfacet
 facet normal  9.848078e-01 -4.547329e-14  1.736482e-01
   outer loop
     vertex -2.273580e-01 -1.079265e-01  1.813615e-01
     vertex -2.270095e-01 -1.070632e-01  1.793850e-01
     vertex -2.272513e-01 -1.053981e-01  1.807563e-01
   endloop
 endfacet
 facet normal  9.848078e-01 -4.988665e-14  1.736482e-01
   outer loop
     vertex -2.275273e-01 -1.034130e-01  1.823216e-01
     vertex -2.279924e-01 -1.038207e-01  1.849590e-01
     vertex -2.276922e-01 -1.060298e-01  1.832566e-01
   endloop
 endfacet
 facet normal  9.848078e-01 -5.131791e-14  1.736482e-01
   outer loop
     vertex -2.275273e-01 -1.034130e-01  1.823216e-01
     vertex -2.276922e-01 -1.060298e-01  1.832566e-01
     vertex -2.272513e-01 -1.053981e-01  1.807563e-01
   endloop
 endfacet
 facet normal  9.848078e-01 -4.664683e-14  1.736482e-01
   outer loop
     vertex -2.295570e-01 -9.974898e-02  1.938322e-01
     vertex -2.297343e-01 -9.775774e-02  1.948380e-01
     vertex -2.299868e-01 -1.001444e-01  1.962700e-01
   endloop
 endfacet
 facet normal  9.848078e-01 -5.089829e-14  1.736482e-01
   outer loop
     vertex -2.297343e-01 -9.775774e-02  1.948380e-01
     vertex -2.301091e-01 -9.777102e-02  1.969636e-01
     vertex -2.299868e-01 -1.001444e-01  1.962700e-01
   endloop
 endfacet
 facet normal  9.848078e-01 -5.067933e-14  1.736482e-01
   outer loop
     vertex -2.288553e-01 -9.858911e-02  1.898530e-01
     vertex -2.291799e-01 -1.006157e-01  1.916938e-01
     vertex -2.287135e-01 -1.013045e-01  1.890484e-01
   endloop
 endfacet
 facet normal  9.848078e-01 -5.072913e-14  1.736482e-01
   outer loop
     vertex -2.288553e-01 -9.858911e-02  1.898530e-01
     vertex -2.287135e-01 -1.013045e-01  1.890484e-01
     vertex -2.284274e-01 -9.916359e-02  1.874259e-01
   endloop
 endfacet
 facet normal  9.848078e-01 -4.480773e-14  1.736482e-01
   outer loop
     vertex -2.280588e-01 -9.962429e-02  1.853358e-01
     vertex -2.284274e-01 -9.916359e-02  1.874259e-01
     vertex -2.282508e-01 -1.015570e-01  1.864246e-01
   endloop
 endfacet
 facet normal  9.848078e-01 -4.920536e-14  1.736482e-01
   outer loop
     vertex -2.308657e-01 -1.031106e-01  2.012543e-01
     vertex -2.311789e-01 -1.012556e-01  2.030307e-01
     vertex -2.313742e-01 -1.032698e-01  2.041384e-01
   endloop
 endfacet
 facet normal  9.848078e-01 -4.973350e-14  1.736482e-01
   outer loop
     vertex -2.316264e-01 -1.095679e-01  2.055684e-01
     vertex -2.319819e-01 -1.099909e-01  2.075848e-01
     vertex -2.316743e-01 -1.119760e-01  2.058401e-01
   endloop
 endfacet
 facet normal  9.848078e-01 -5.148697e-14  1.736482e-01
   outer loop
     vertex -2.319819e-01 -1.099909e-01  2.075848e-01
     vertex -2.320748e-01 -1.120153e-01  2.081116e-01
     vertex -2.316743e-01 -1.119760e-01  2.058401e-01
   endloop
 endfacet
 facet normal  9.848078e-01 -4.987985e-14  1.736482e-01
   outer loop
     vertex -2.301091e-01 -9.777102e-02  1.969636e-01
     vertex -2.304286e-01 -9.891033e-02  1.987754e-01
     vertex -2.299868e-01 -1.001444e-01  1.962700e-01
   endloop
 endfacet
 facet normal  9.848078e-01 -5.267914e-14  1.736482e-01
   outer loop
     vertex -2.315318e-01 -1.167203e-01  2.050318e-01
     vertex -2.316978e-01 -1.185595e-01  2.059733e-01
     vertex -2.312955e-01 -1.182017e-01  2.036921e-01
   endloop
 endfacet
 facet normal  9.848078e-01 -4.153046e-14  1.736482e-01
   outer loop
     vertex -2.316978e-01 -1.185595e-01  2.059733e-01
     vertex -2.314430e-01 -1.205439e-01  2.045283e-01
     vertex -2.312955e-01 -1.182017e-01  2.036921e-01
   endloop
 endfacet
 facet normal  9.848078e-01 -4.953233e-14  1.736482e-01
   outer loop
     vertex -2.299868e-01 -1.001444e-01  1.962700e-01
     vertex -2.304286e-01 -9.891033e-02  1.987754e-01
     vertex -2.304291e-01 -1.015555e-01  1.987785e-01
   endloop
 endfacet
 facet normal  9.848078e-01 -4.091531e-14  1.736482e-01
   outer loop
     vertex -2.320748e-01 -1.120153e-01  2.081116e-01
     vertex -2.319766e-01 -1.140127e-01  2.075545e-01
     vertex -2.316743e-01 -1.119760e-01  2.058401e-01
   endloop
 endfacet
 facet normal  9.848078e-01 -5.568270e-14  1.736482e-01
   outer loop
     vertex -2.314430e-01 -1.205439e-01  2.045283e-01
     vertex -2.311684e-01 -1.224540e-01  2.029710e-01
     vertex -2.310123e-01 -1.200186e-01  2.020860e-01
   endloop
 endfacet
 facet normal  9.848078e-01 -4.517249e-14  1.736482e-01
   outer loop
     vertex -2.312955e-01 -1.182017e-01  2.036921e-01
     vertex -2.314430e-01 -1.205439e-01  2.045283e-01
     vertex -2.310123e-01 -1.200186e-01  2.020860e-01
   endloop
 endfacet
 facet normal  9.848078e-01 -5.152518e-14  1.736482e-01
   outer loop
     vertex -2.311684e-01 -1.224540e-01  2.029710e-01
     vertex -2.306896e-01 -1.221391e-01  2.002557e-01
     vertex -2.310123e-01 -1.200186e-01  2.020860e-01
   endloop
 endfacet
 facet normal  9.848078e-01 -4.294148e-14  1.736482e-01
   outer loop
     vertex -2.319766e-01 -1.140127e-01  2.075545e-01
     vertex -2.315801e-01 -1.146724e-01  2.053057e-01
     vertex -2.316743e-01 -1.119760e-01  2.058401e-01
   endloop
 endfacet
 facet normal  9.848078e-01 -4.305244e-14  1.736482e-01
   outer loop
     vertex -2.289773e-01 -1.246225e-01  1.905448e-01
     vertex -2.286585e-01 -1.235176e-01  1.887369e-01
     vertex -2.290466e-01 -1.223650e-01  1.909375e-01
   endloop
 endfacet
 facet normal  9.848078e-01 -4.925429e-14  1.736482e-01
   outer loop
     vertex -2.304291e-01 -1.015555e-01  1.987785e-01
     vertex -2.308657e-01 -1.031106e-01  2.012543e-01
     vertex -2.304384e-01 -1.039540e-01  1.988309e-01
   endloop
 endfacet
 facet normal  9.848078e-01 -4.269756e-14  1.736482e-01
   outer loop
     vertex -2.295570e-01 -9.974898e-02  1.938322e-01
     vertex -2.299868e-01 -1.001444e-01  1.962700e-01
     vertex -2.295879e-01 -1.021870e-01  1.940074e-01
   endloop
 endfacet
 facet normal  9.848078e-01 -4.304751e-14  1.736482e-01
   outer loop
     vertex -2.291799e-01 -1.006157e-01  1.916938e-01
     vertex -2.295570e-01 -9.974898e-02  1.938322e-01
     vertex -2.295879e-01 -1.021870e-01  1.940074e-01
   endloop
 endfacet
 facet normal  9.848078e-01 -4.677279e-14  1.736482e-01
   outer loop
     vertex -2.282508e-01 -1.015570e-01  1.864246e-01
     vertex -2.284274e-01 -9.916359e-02  1.874259e-01
     vertex -2.287135e-01 -1.013045e-01  1.890484e-01
   endloop
 endfacet
 facet normal  9.848078e-01 -5.027419e-14  1.736482e-01
   outer loop
     vertex -2.279924e-01 -1.038207e-01  1.849590e-01
     vertex -2.282508e-01 -1.015570e-01  1.864246e-01
     vertex -2.284904e-01 -1.040305e-01  1.877834e-01
   endloop
 endfacet
 facet normal  9.848078e-01 -5.039031e-14  1.736482e-01
   outer loop
     vertex -2.273614e-01 -1.106088e-01  1.813803e-01
     vertex -2.273580e-01 -1.079265e-01  1.813615e-01
     vertex -2.278306e-01 -1.091847e-01  1.840416e-01
   endloop
 endfacet
 facet normal  9.848078e-01 -4.830777e-14  1.736482e-01
   outer loop
     vertex -2.313985e-01 -1.078206e-01  2.042759e-01
     vertex -2.316264e-01 -1.095679e-01  2.055684e-01
     vertex -2.312604e-01 -1.103748e-01  2.034926e-01
   endloop
 endfacet
 facet normal  9.848078e-01 -4.942676e-14  1.736482e-01
   outer loop
     vertex -2.316264e-01 -1.095679e-01  2.055684e-01
     vertex -2.316743e-01 -1.119760e-01  2.058401e-01
     vertex -2.312604e-01 -1.103748e-01  2.034926e-01
   endloop
 endfacet
 facet normal  9.848078e-01 -4.357962e-14  1.736482e-01
   outer loop
     vertex -2.277425e-01 -1.180205e-01  1.835417e-01
     vertex -2.274217e-01 -1.154321e-01  1.817226e-01
     vertex -2.279426e-01 -1.154099e-01  1.846765e-01
   endloop
 endfacet
 facet normal  9.848078e-01 -4.444491e-14  1.736482e-01
   outer loop
     vertex -2.315801e-01 -1.146724e-01  2.053057e-01
     vertex -2.315318e-01 -1.167203e-01  2.050318e-01
     vertex -2.312141e-01 -1.158310e-01  2.032305e-01
   endloop
 endfacet
 facet normal  9.848078e-01 -4.322875e-14  1.736482e-01
   outer loop
     vertex -2.306896e-01 -1.221391e-01  2.002557e-01
     vertex -2.302431e-01 -1.231307e-01  1.977232e-01
     vertex -2.303223e-01 -1.209203e-01  1.981727e-01
   endloop
 endfacet
 facet normal  9.848078e-01 -3.833521e-14  1.736482e-01
   outer loop
     vertex -2.274217e-01 -1.154321e-01  1.817226e-01
     vertex -2.269784e-01 -1.141925e-01  1.792085e-01
     vertex -2.272945e-01 -1.129276e-01  1.810010e-01
   endloop
 endfacet
 facet normal  9.848078e-01 -4.139673e-14  1.736482e-01
   outer loop
     vertex -2.299868e-01 -1.001444e-01  1.962700e-01
     vertex -2.304291e-01 -1.015555e-01  1.987785e-01
     vertex -2.300451e-01 -1.031836e-01  1.966006e-01
   endloop
 endfacet
 facet normal  9.848078e-01 -4.084215e-14  1.736482e-01
   outer loop
     vertex -2.295879e-01 -1.021870e-01  1.940074e-01
     vertex -2.299868e-01 -1.001444e-01  1.962700e-01
     vertex -2.300451e-01 -1.031836e-01  1.966006e-01
   endloop
 endfacet
 facet normal  9.848078e-01 -4.925309e-14  1.736482e-01
   outer loop
     vertex -2.304291e-01 -1.015555e-01  1.987785e-01
     vertex -2.304384e-01 -1.039540e-01  1.988309e-01
     vertex -2.300451e-01 -1.031836e-01  1.966006e-01
   endloop
 endfacet
 facet normal  9.848078e-01 -5.399203e-14  1.736482e-01
   outer loop
     vertex -2.308657e-01 -1.031106e-01  2.012543e-01
     vertex -2.313742e-01 -1.032698e-01  2.041384e-01
     vertex -2.311436e-01 -1.056491e-01  2.028307e-01
   endloop
 endfacet
 facet normal  9.848078e-01 -4.510210e-14  1.736482e-01
   outer loop
     vertex -2.316743e-01 -1.119760e-01  2.058401e-01
     vertex -2.315801e-01 -1.146724e-01  2.053057e-01
     vertex -2.312131e-01 -1.131841e-01  2.032243e-01
   endloop
 endfacet
 facet normal  9.848078e-01 -4.079365e-14  1.736482e-01
   outer loop
     vertex -2.316743e-01 -1.119760e-01  2.058401e-01
     vertex -2.312131e-01 -1.131841e-01  2.032243e-01
     vertex -2.312604e-01 -1.103748e-01  2.034926e-01
   endloop
 endfacet
 facet normal  9.848078e-01 -5.179767e-14  1.736482e-01
   outer loop
     vertex -2.297407e-01 -1.263811e-01  1.948744e-01
     vertex -2.294139e-01 -1.270630e-01  1.930207e-01
     vertex -2.293738e-01 -1.246816e-01  1.927932e-01
   endloop
 endfacet
 facet normal  9.848078e-01 -4.441853e-14  1.736482e-01
   outer loop
     vertex -2.280407e-01 -1.204295e-01  1.852329e-01
     vertex -2.277425e-01 -1.180205e-01  1.835417e-01
     vertex -2.282421e-01 -1.177375e-01  1.863751e-01
   endloop
 endfacet
 facet normal  9.848078e-01 -4.210082e-14  1.736482e-01
   outer loop
     vertex -2.277425e-01 -1.180205e-01  1.835417e-01
     vertex -2.279426e-01 -1.154099e-01  1.846765e-01
     vertex -2.282421e-01 -1.177375e-01  1.863751e-01
   endloop
 endfacet
 facet normal  9.848078e-01 -4.512893e-14  1.736482e-01
   outer loop
     vertex -2.273580e-01 -1.079265e-01  1.813615e-01
     vertex -2.272513e-01 -1.053981e-01  1.807563e-01
     vertex -2.276922e-01 -1.060298e-01  1.832566e-01
   endloop
 endfacet
 facet normal  9.848078e-01 -4.586894e-14  1.736482e-01
   outer loop
     vertex -2.272945e-01 -1.129276e-01  1.810010e-01
     vertex -2.273614e-01 -1.106088e-01  1.813803e-01
     vertex -2.277327e-01 -1.126312e-01  1.834861e-01
   endloop
 endfacet
 facet normal  9.848078e-01 -4.321917e-14  1.736482e-01
   outer loop
     vertex -2.273614e-01 -1.106088e-01  1.813803e-01
     vertex -2.278306e-01 -1.091847e-01  1.840416e-01
     vertex -2.277327e-01 -1.126312e-01  1.834861e-01
   endloop
 endfacet
 facet normal  9.848078e-01 -4.647050e-14  1.736482e-01
   outer loop
     vertex -2.311436e-01 -1.056491e-01  2.028307e-01
     vertex -2.313985e-01 -1.078206e-01  2.042759e-01
     vertex -2.309433e-01 -1.082772e-01  2.016943e-01
   endloop
 endfacet
 facet normal  9.848078e-01 -4.921529e-14  1.736482e-01
   outer loop
     vertex -2.313985e-01 -1.078206e-01  2.042759e-01
     vertex -2.312604e-01 -1.103748e-01  2.034926e-01
     vertex -2.309433e-01 -1.082772e-01  2.016943e-01
   endloop
 endfacet
 facet normal  9.848078e-01 -4.391381e-14  1.736482e-01
   outer loop
     vertex -2.280407e-01 -1.204295e-01  1.852329e-01
     vertex -2.282421e-01 -1.177375e-01  1.863751e-01
     vertex -2.285969e-01 -1.204557e-01  1.883874e-01
   endloop
 endfacet
 facet normal  9.848078e-01 -5.495707e-14  1.736482e-01
   outer loop
     vertex -2.280407e-01 -1.204295e-01  1.852329e-01
     vertex -2.285969e-01 -1.204557e-01  1.883874e-01
     vertex -2.282906e-01 -1.225325e-01  1.866501e-01
   endloop
 endfacet
 facet normal  9.848078e-01 -4.844662e-14  1.736482e-01
   outer loop
     vertex -2.298225e-01 -1.238020e-01  1.953379e-01
     vertex -2.297407e-01 -1.263811e-01  1.948744e-01
     vertex -2.293738e-01 -1.246816e-01  1.927932e-01
   endloop
 endfacet
 facet normal  9.848078e-01 -4.834593e-14  1.736482e-01
   outer loop
     vertex -2.276922e-01 -1.060298e-01  1.832566e-01
     vertex -2.279924e-01 -1.038207e-01  1.849590e-01
     vertex -2.281847e-01 -1.065541e-01  1.860500e-01
   endloop
 endfacet
 facet normal  9.848078e-01 -4.886726e-14  1.736482e-01
   outer loop
     vertex -2.279924e-01 -1.038207e-01  1.849590e-01
     vertex -2.284904e-01 -1.040305e-01  1.877834e-01
     vertex -2.281847e-01 -1.065541e-01  1.860500e-01
   endloop
 endfacet
 facet normal  9.848078e-01 -4.946689e-14  1.736482e-01
   outer loop
     vertex -2.308657e-01 -1.031106e-01  2.012543e-01
     vertex -2.311436e-01 -1.056491e-01  2.028307e-01
     vertex -2.306719e-01 -1.059503e-01  2.001555e-01
   endloop
 endfacet
 facet normal  9.848078e-01 -4.748692e-14  1.736482e-01
   outer loop
     vertex -2.304384e-01 -1.039540e-01  1.988309e-01
     vertex -2.308657e-01 -1.031106e-01  2.012543e-01
     vertex -2.306719e-01 -1.059503e-01  2.001555e-01
   endloop
 endfacet
 facet normal  9.848078e-01 -4.912188e-14  1.736482e-01
   outer loop
     vertex -2.311436e-01 -1.056491e-01  2.028307e-01
     vertex -2.309433e-01 -1.082772e-01  2.016943e-01
     vertex -2.306719e-01 -1.059503e-01  2.001555e-01
   endloop
 endfacet
 facet normal  9.848078e-01 -4.201909e-14  1.736482e-01
   outer loop
     vertex -2.315318e-01 -1.167203e-01  2.050318e-01
     vertex -2.312955e-01 -1.182017e-01  2.036921e-01
     vertex -2.312141e-01 -1.158310e-01  2.032305e-01
   endloop
 endfacet
 facet normal  9.848078e-01 -4.756483e-14  1.736482e-01
   outer loop
     vertex -2.282508e-01 -1.015570e-01  1.864246e-01
     vertex -2.287135e-01 -1.013045e-01  1.890484e-01
     vertex -2.284904e-01 -1.040305e-01  1.877834e-01
   endloop
 endfacet
 facet normal  9.848078e-01 -4.355502e-14  1.736482e-01
   outer loop
     vertex -2.287135e-01 -1.013045e-01  1.890484e-01
     vertex -2.291799e-01 -1.006157e-01  1.916938e-01
     vertex -2.290871e-01 -1.039888e-01  1.911676e-01
   endloop
 endfacet
 facet normal  9.848078e-01 -4.394720e-14  1.736482e-01
   outer loop
     vertex -2.284904e-01 -1.040305e-01  1.877834e-01
     vertex -2.287135e-01 -1.013045e-01  1.890484e-01
     vertex -2.290871e-01 -1.039888e-01  1.911676e-01
   endloop
 endfacet
 facet normal  9.848078e-01 -4.371950e-14  1.736482e-01
   outer loop
     vertex -2.291799e-01 -1.006157e-01  1.916938e-01
     vertex -2.295879e-01 -1.021870e-01  1.940074e-01
     vertex -2.290871e-01 -1.039888e-01  1.911676e-01
   endloop
 endfacet
 facet normal  9.848078e-01 -4.759742e-14  1.736482e-01
   outer loop
     vertex -2.278306e-01 -1.091847e-01  1.840416e-01
     vertex -2.273580e-01 -1.079265e-01  1.813615e-01
     vertex -2.276922e-01 -1.060298e-01  1.832566e-01
   endloop
 endfacet
 facet normal  9.848078e-01 -4.452480e-14  1.736482e-01
   outer loop
     vertex -2.289773e-01 -1.246225e-01  1.905448e-01
     vertex -2.290466e-01 -1.223650e-01  1.909375e-01
     vertex -2.293738e-01 -1.246816e-01  1.927932e-01
   endloop
 endfacet
 facet normal  9.848078e-01 -4.428211e-14  1.736482e-01
   outer loop
     vertex -2.303223e-01 -1.209203e-01  1.981727e-01
     vertex -2.302431e-01 -1.231307e-01  1.977232e-01
     vertex -2.299457e-01 -1.211997e-01  1.960367e-01
   endloop
 endfacet
 facet normal  9.848078e-01 -4.842644e-14  1.736482e-01
   outer loop
     vertex -2.302431e-01 -1.231307e-01  1.977232e-01
     vertex -2.298225e-01 -1.238020e-01  1.953379e-01
     vertex -2.299457e-01 -1.211997e-01  1.960367e-01
   endloop
 endfacet
 facet normal  9.848078e-01 -4.877682e-14  1.736482e-01
   outer loop
     vertex -2.279426e-01 -1.154099e-01  1.846765e-01
     vertex -2.274217e-01 -1.154321e-01  1.817226e-01
     vertex -2.277327e-01 -1.126312e-01  1.834861e-01
   endloop
 endfacet
 facet normal  9.848078e-01 -5.478963e-14  1.736482e-01
   outer loop
     vertex -2.315801e-01 -1.146724e-01  2.053057e-01
     vertex -2.312141e-01 -1.158310e-01  2.032305e-01
     vertex -2.312131e-01 -1.131841e-01  2.032243e-01
   endloop
 endfacet
 facet normal  9.848078e-01 -4.010674e-14  1.736482e-01
   outer loop
     vertex -2.306896e-01 -1.221391e-01  2.002557e-01
     vertex -2.303223e-01 -1.209203e-01  1.981727e-01
     vertex -2.305899e-01 -1.193198e-01  1.996901e-01
   endloop
 endfacet
 facet normal  9.848078e-01 -4.045197e-14  1.736482e-01
   outer loop
     vertex -2.306896e-01 -1.221391e-01  2.002557e-01
     vertex -2.305899e-01 -1.193198e-01  1.996901e-01
     vertex -2.310123e-01 -1.200186e-01  2.020860e-01
   endloop
 endfacet
 facet normal  9.848078e-01 -5.424899e-14  1.736482e-01
   outer loop
     vertex -2.286585e-01 -1.235176e-01  1.887369e-01
     vertex -2.282906e-01 -1.225325e-01  1.866501e-01
     vertex -2.285969e-01 -1.204557e-01  1.883874e-01
   endloop
 endfacet
 facet normal  9.848078e-01 -5.472763e-14  1.736482e-01
   outer loop
     vertex -2.290466e-01 -1.223650e-01  1.909375e-01
     vertex -2.286585e-01 -1.235176e-01  1.887369e-01
     vertex -2.285969e-01 -1.204557e-01  1.883874e-01
   endloop
 endfacet
 facet normal  9.848078e-01 -4.190993e-14  1.736482e-01
   outer loop
     vertex -2.285969e-01 -1.204557e-01  1.883874e-01
     vertex -2.282421e-01 -1.177375e-01  1.863751e-01
     vertex -2.287421e-01 -1.171059e-01  1.892108e-01
   endloop
 endfacet
 facet normal  9.848078e-01 -4.065674e-14  1.736482e-01
   outer loop
     vertex -2.312604e-01 -1.103748e-01  2.034926e-01
     vertex -2.312131e-01 -1.131841e-01  2.032243e-01
     vertex -2.307523e-01 -1.114396e-01  2.006113e-01
   endloop
 endfacet
 facet normal  9.848078e-01 -4.808900e-14  1.736482e-01
   outer loop
     vertex -2.278306e-01 -1.091847e-01  1.840416e-01
     vertex -2.276922e-01 -1.060298e-01  1.832566e-01
     vertex -2.281847e-01 -1.065541e-01  1.860500e-01
   endloop
 endfacet
 facet normal  9.848078e-01 -4.214936e-14  1.736482e-01
   outer loop
     vertex -2.312955e-01 -1.182017e-01  2.036921e-01
     vertex -2.310123e-01 -1.200186e-01  2.020860e-01
     vertex -2.308952e-01 -1.174768e-01  2.014219e-01
   endloop
 endfacet
 facet normal  9.848078e-01 -4.235917e-14  1.736482e-01
   outer loop
     vertex -2.310123e-01 -1.200186e-01  2.020860e-01
     vertex -2.305899e-01 -1.193198e-01  1.996901e-01
     vertex -2.308952e-01 -1.174768e-01  2.014219e-01
   endloop
 endfacet
 facet normal  9.848078e-01 -4.201974e-14  1.736482e-01
   outer loop
     vertex -2.312141e-01 -1.158310e-01  2.032305e-01
     vertex -2.312955e-01 -1.182017e-01  2.036921e-01
     vertex -2.308952e-01 -1.174768e-01  2.014219e-01
   endloop
 endfacet
 facet normal  9.848078e-01 -4.125204e-14  1.736482e-01
   outer loop
     vertex -2.277327e-01 -1.126312e-01  1.834861e-01
     vertex -2.274217e-01 -1.154321e-01  1.817226e-01
     vertex -2.272945e-01 -1.129276e-01  1.810010e-01
   endloop
 endfacet
 facet normal  9.848078e-01 -4.623474e-14  1.736482e-01
   outer loop
     vertex -2.290466e-01 -1.223650e-01  1.909375e-01
     vertex -2.285969e-01 -1.204557e-01  1.883874e-01
     vertex -2.291422e-01 -1.193447e-01  1.914801e-01
   endloop
 endfacet
 facet normal  9.848078e-01 -5.479432e-14  1.736482e-01
   outer loop
     vertex -2.312131e-01 -1.131841e-01  2.032243e-01
     vertex -2.312141e-01 -1.158310e-01  2.032305e-01
     vertex -2.308099e-01 -1.147619e-01  2.009382e-01
   endloop
 endfacet
 facet normal  9.848078e-01 -4.797866e-14  1.736482e-01
   outer loop
     vertex -2.279426e-01 -1.154099e-01  1.846765e-01
     vertex -2.277327e-01 -1.126312e-01  1.834861e-01
     vertex -2.281431e-01 -1.133890e-01  1.858138e-01
   endloop
 endfacet
 facet normal  9.848078e-01 -4.455644e-14  1.736482e-01
   outer loop
     vertex -2.293738e-01 -1.246816e-01  1.927932e-01
     vertex -2.290466e-01 -1.223650e-01  1.909375e-01
     vertex -2.294990e-01 -1.216977e-01  1.935032e-01
   endloop
 endfacet
 facet normal  9.848078e-01 -4.898733e-14  1.736482e-01
   outer loop
     vertex -2.282421e-01 -1.177375e-01  1.863751e-01
     vertex -2.279426e-01 -1.154099e-01  1.846765e-01
     vertex -2.283947e-01 -1.151129e-01  1.872406e-01
   endloop
 endfacet
 facet normal  9.848078e-01 -5.355526e-14  1.736482e-01
   outer loop
     vertex -2.287421e-01 -1.171059e-01  1.892108e-01
     vertex -2.282421e-01 -1.177375e-01  1.863751e-01
     vertex -2.283947e-01 -1.151129e-01  1.872406e-01
   endloop
 endfacet
 facet normal  9.848078e-01 -3.904698e-14  1.736482e-01
   outer loop
     vertex -2.279426e-01 -1.154099e-01  1.846765e-01
     vertex -2.281431e-01 -1.133890e-01  1.858138e-01
     vertex -2.283947e-01 -1.151129e-01  1.872406e-01
   endloop
 endfacet
 facet normal  9.848078e-01 -4.452885e-14  1.736482e-01
   outer loop
     vertex -2.277327e-01 -1.126312e-01  1.834861e-01
     vertex -2.278306e-01 -1.091847e-01  1.840416e-01
     vertex -2.281209e-01 -1.113318e-01  1.856880e-01
   endloop
 endfacet
 facet normal  9.848078e-01 -4.856819e-14  1.736482e-01
   outer loop
     vertex -2.277327e-01 -1.126312e-01  1.834861e-01
     vertex -2.281209e-01 -1.113318e-01  1.856880e-01
     vertex -2.281431e-01 -1.133890e-01  1.858138e-01
   endloop
 endfacet
 facet normal  9.848078e-01 -4.580889e-14  1.736482e-01
   outer loop
     vertex -2.309433e-01 -1.082772e-01  2.016943e-01
     vertex -2.312604e-01 -1.103748e-01  2.034926e-01
     vertex -2.307523e-01 -1.114396e-01  2.006113e-01
   endloop
 endfacet
 facet normal  9.848078e-01 -4.662981e-14  1.736482e-01
   outer loop
     vertex -2.281847e-01 -1.065541e-01  1.860500e-01
     vertex -2.284904e-01 -1.040305e-01  1.877834e-01
     vertex -2.287124e-01 -1.069601e-01  1.890425e-01
   endloop
 endfacet
 facet normal  9.848078e-01 -5.157961e-14  1.736482e-01
   outer loop
     vertex -2.295879e-01 -1.021870e-01  1.940074e-01
     vertex -2.300451e-01 -1.031836e-01  1.966006e-01
     vertex -2.296683e-01 -1.053141e-01  1.944635e-01
   endloop
 endfacet
 facet normal  9.848078e-01 -4.661378e-14  1.736482e-01
   outer loop
     vertex -2.278306e-01 -1.091847e-01  1.840416e-01
     vertex -2.281847e-01 -1.065541e-01  1.860500e-01
     vertex -2.283795e-01 -1.093597e-01  1.871547e-01
   endloop
 endfacet
 facet normal  9.848078e-01 -4.999399e-14  1.736482e-01
   outer loop
     vertex -2.281209e-01 -1.113318e-01  1.856880e-01
     vertex -2.278306e-01 -1.091847e-01  1.840416e-01
     vertex -2.283795e-01 -1.093597e-01  1.871547e-01
   endloop
 endfacet
 facet normal  9.848078e-01 -4.773130e-14  1.736482e-01
   outer loop
     vertex -2.281847e-01 -1.065541e-01  1.860500e-01
     vertex -2.287124e-01 -1.069601e-01  1.890425e-01
     vertex -2.283795e-01 -1.093597e-01  1.871547e-01
   endloop
 endfacet
 facet normal  9.848078e-01 -5.085676e-14  1.736482e-01
   outer loop
     vertex -2.290871e-01 -1.039888e-01  1.911676e-01
     vertex -2.295879e-01 -1.021870e-01  1.940074e-01
     vertex -2.296683e-01 -1.053141e-01  1.944635e-01
   endloop
 endfacet
 facet normal  9.848078e-01 -4.556404e-14  1.736482e-01
   outer loop
     vertex -2.290466e-01 -1.223650e-01  1.909375e-01
     vertex -2.291422e-01 -1.193447e-01  1.914801e-01
     vertex -2.294990e-01 -1.216977e-01  1.935032e-01
   endloop
 endfacet
 facet normal  9.848078e-01 -4.650164e-14  1.736482e-01
   outer loop
     vertex -2.284904e-01 -1.040305e-01  1.877834e-01
     vertex -2.290871e-01 -1.039888e-01  1.911676e-01
     vertex -2.287124e-01 -1.069601e-01  1.890425e-01
   endloop
 endfacet
 facet normal  9.848078e-01 -5.111035e-14  1.736482e-01
   outer loop
     vertex -2.299457e-01 -1.211997e-01  1.960367e-01
     vertex -2.298225e-01 -1.238020e-01  1.953379e-01
     vertex -2.294990e-01 -1.216977e-01  1.935032e-01
   endloop
 endfacet
 facet normal  9.848078e-01 -4.862778e-14  1.736482e-01
   outer loop
     vertex -2.304384e-01 -1.039540e-01  1.988309e-01
     vertex -2.306719e-01 -1.059503e-01  2.001555e-01
     vertex -2.301857e-01 -1.059717e-01  1.973979e-01
   endloop
 endfacet
 facet normal  9.848078e-01 -4.986398e-14  1.736482e-01
   outer loop
     vertex -2.308099e-01 -1.147619e-01  2.009382e-01
     vertex -2.312141e-01 -1.158310e-01  2.032305e-01
     vertex -2.308952e-01 -1.174768e-01  2.014219e-01
   endloop
 endfacet
 facet normal  9.848078e-01 -5.034192e-14  1.736482e-01
   outer loop
     vertex -2.312131e-01 -1.131841e-01  2.032243e-01
     vertex -2.308099e-01 -1.147619e-01  2.009382e-01
     vertex -2.307523e-01 -1.114396e-01  2.006113e-01
   endloop
 endfacet
 facet normal  9.848078e-01 -4.703605e-14  1.736482e-01
   outer loop
     vertex -2.293738e-01 -1.246816e-01  1.927932e-01
     vertex -2.294990e-01 -1.216977e-01  1.935032e-01
     vertex -2.298225e-01 -1.238020e-01  1.953379e-01
   endloop
 endfacet
 facet normal  9.848078e-01 -5.319141e-14  1.736482e-01
   outer loop
     vertex -2.305899e-01 -1.193198e-01  1.996901e-01
     vertex -2.303223e-01 -1.209203e-01  1.981727e-01
     vertex -2.301549e-01 -1.188275e-01  1.972233e-01
   endloop
 endfacet
 facet normal  9.848078e-01 -4.113431e-14  1.736482e-01
   outer loop
     vertex -2.291422e-01 -1.193447e-01  1.914801e-01
     vertex -2.285969e-01 -1.204557e-01  1.883874e-01
     vertex -2.287421e-01 -1.171059e-01  1.892108e-01
   endloop
 endfacet
 facet normal  9.848078e-01 -5.010591e-14  1.736482e-01
   outer loop
     vertex -2.300451e-01 -1.031836e-01  1.966006e-01
     vertex -2.304384e-01 -1.039540e-01  1.988309e-01
     vertex -2.301857e-01 -1.059717e-01  1.973979e-01
   endloop
 endfacet
 facet normal  9.848078e-01 -5.713072e-14  1.736482e-01
   outer loop
     vertex -2.303223e-01 -1.209203e-01  1.981727e-01
     vertex -2.299457e-01 -1.211997e-01  1.960367e-01
     vertex -2.301549e-01 -1.188275e-01  1.972233e-01
   endloop
 endfacet
 facet normal  9.848078e-01 -4.452034e-14  1.736482e-01
   outer loop
     vertex -2.299457e-01 -1.211997e-01  1.960367e-01
     vertex -2.294990e-01 -1.216977e-01  1.935032e-01
     vertex -2.296680e-01 -1.187774e-01  1.944620e-01
   endloop
 endfacet
 facet normal  9.848078e-01 -5.227824e-14  1.736482e-01
   outer loop
     vertex -2.301549e-01 -1.188275e-01  1.972233e-01
     vertex -2.299457e-01 -1.211997e-01  1.960367e-01
     vertex -2.296680e-01 -1.187774e-01  1.944620e-01
   endloop
 endfacet
 facet normal  9.848078e-01 -4.382113e-14  1.736482e-01
   outer loop
     vertex -2.294990e-01 -1.216977e-01  1.935032e-01
     vertex -2.291422e-01 -1.193447e-01  1.914801e-01
     vertex -2.296680e-01 -1.187774e-01  1.944620e-01
   endloop
 endfacet
 facet normal  9.848078e-01 -4.957140e-14  1.736482e-01
   outer loop
     vertex -2.290871e-01 -1.039888e-01  1.911676e-01
     vertex -2.296683e-01 -1.053141e-01  1.944635e-01
     vertex -2.292608e-01 -1.077342e-01  1.921527e-01
   endloop
 endfacet
 facet normal  9.848078e-01 -4.999217e-14  1.736482e-01
   outer loop
     vertex -2.290871e-01 -1.039888e-01  1.911676e-01
     vertex -2.292608e-01 -1.077342e-01  1.921527e-01
     vertex -2.287124e-01 -1.069601e-01  1.890425e-01
   endloop
 endfacet
 facet normal  9.848078e-01 -5.321711e-14  1.736482e-01
   outer loop
     vertex -2.306719e-01 -1.059503e-01  2.001555e-01
     vertex -2.309433e-01 -1.082772e-01  2.016943e-01
     vertex -2.304438e-01 -1.085691e-01  1.988620e-01
   endloop
 endfacet
 facet normal  9.848078e-01 -5.293294e-14  1.736482e-01
   outer loop
     vertex -2.306719e-01 -1.059503e-01  2.001555e-01
     vertex -2.304438e-01 -1.085691e-01  1.988620e-01
     vertex -2.301857e-01 -1.059717e-01  1.973979e-01
   endloop
 endfacet
 facet normal  9.848078e-01 -5.218751e-14  1.736482e-01
   outer loop
     vertex -2.308952e-01 -1.174768e-01  2.014219e-01
     vertex -2.305899e-01 -1.193198e-01  1.996901e-01
     vertex -2.304556e-01 -1.167048e-01  1.989287e-01
   endloop
 endfacet
 facet normal  9.848078e-01 -5.039591e-14  1.736482e-01
   outer loop
     vertex -2.305899e-01 -1.193198e-01  1.996901e-01
     vertex -2.301549e-01 -1.188275e-01  1.972233e-01
     vertex -2.304556e-01 -1.167048e-01  1.989287e-01
   endloop
 endfacet
 facet normal  9.848078e-01 -4.925282e-14  1.736482e-01
   outer loop
     vertex -2.308099e-01 -1.147619e-01  2.009382e-01
     vertex -2.308952e-01 -1.174768e-01  2.014219e-01
     vertex -2.304556e-01 -1.167048e-01  1.989287e-01
   endloop
 endfacet
 facet normal  9.848078e-01 -4.393657e-14  1.736482e-01
   outer loop
     vertex -2.309433e-01 -1.082772e-01  2.016943e-01
     vertex -2.307523e-01 -1.114396e-01  2.006113e-01
     vertex -2.304438e-01 -1.085691e-01  1.988620e-01
   endloop
 endfacet
 facet normal  9.848078e-01 -4.924826e-14  1.736482e-01
   outer loop
     vertex -2.281431e-01 -1.133890e-01  1.858138e-01
     vertex -2.281209e-01 -1.113318e-01  1.856880e-01
     vertex -2.285242e-01 -1.123380e-01  1.879750e-01
   endloop
 endfacet
 facet normal  9.848078e-01 -4.704594e-14  1.736482e-01
   outer loop
     vertex -2.291422e-01 -1.193447e-01  1.914801e-01
     vertex -2.287421e-01 -1.171059e-01  1.892108e-01
     vertex -2.293072e-01 -1.152239e-01  1.924154e-01
   endloop
 endfacet
 facet normal  9.848078e-01 -5.147474e-14  1.736482e-01
   outer loop
     vertex -2.300451e-01 -1.031836e-01  1.966006e-01
     vertex -2.301857e-01 -1.059717e-01  1.973979e-01
     vertex -2.296683e-01 -1.053141e-01  1.944635e-01
   endloop
 endfacet
 facet normal  9.848078e-01 -5.015504e-14  1.736482e-01
   outer loop
     vertex -2.307523e-01 -1.114396e-01  2.006113e-01
     vertex -2.308099e-01 -1.147619e-01  2.009382e-01
     vertex -2.303416e-01 -1.138113e-01  1.982823e-01
   endloop
 endfacet
 facet normal  9.848078e-01 -4.421669e-14  1.736482e-01
   outer loop
     vertex -2.296683e-01 -1.053141e-01  1.944635e-01
     vertex -2.301857e-01 -1.059717e-01  1.973979e-01
     vertex -2.298575e-01 -1.089274e-01  1.955366e-01
   endloop
 endfacet
 facet normal  9.848078e-01 -4.457774e-14  1.736482e-01
   outer loop
     vertex -2.292608e-01 -1.077342e-01  1.921527e-01
     vertex -2.296683e-01 -1.053141e-01  1.944635e-01
     vertex -2.298575e-01 -1.089274e-01  1.955366e-01
   endloop
 endfacet
 facet normal  9.848078e-01 -4.914264e-14  1.736482e-01
   outer loop
     vertex -2.301857e-01 -1.059717e-01  1.973979e-01
     vertex -2.304438e-01 -1.085691e-01  1.988620e-01
     vertex -2.298575e-01 -1.089274e-01  1.955366e-01
   endloop
 endfacet
 facet normal  9.848078e-01 -3.943013e-14  1.736482e-01
   outer loop
     vertex -2.281431e-01 -1.133890e-01  1.858138e-01
     vertex -2.285242e-01 -1.123380e-01  1.879750e-01
     vertex -2.283947e-01 -1.151129e-01  1.872406e-01
   endloop
 endfacet
 facet normal  9.848078e-01 -4.148646e-14  1.736482e-01
   outer loop
     vertex -2.304556e-01 -1.167048e-01  1.989287e-01
     vertex -2.301549e-01 -1.188275e-01  1.972233e-01
     vertex -2.299622e-01 -1.160216e-01  1.961303e-01
   endloop
 endfacet
 facet normal  9.848078e-01 -4.875570e-14  1.736482e-01
   outer loop
     vertex -2.281209e-01 -1.113318e-01  1.856880e-01
     vertex -2.283795e-01 -1.093597e-01  1.871547e-01
     vertex -2.285242e-01 -1.123380e-01  1.879750e-01
   endloop
 endfacet
 facet normal  9.848078e-01 -4.406607e-14  1.736482e-01
   outer loop
     vertex -2.304438e-01 -1.085691e-01  1.988620e-01
     vertex -2.307523e-01 -1.114396e-01  2.006113e-01
     vertex -2.302472e-01 -1.110959e-01  1.977466e-01
   endloop
 endfacet
 facet normal  9.848078e-01 -4.719306e-14  1.736482e-01
   outer loop
     vertex -2.298575e-01 -1.089274e-01  1.955366e-01
     vertex -2.304438e-01 -1.085691e-01  1.988620e-01
     vertex -2.302472e-01 -1.110959e-01  1.977466e-01
   endloop
 endfacet
 facet normal  9.848078e-01 -5.027787e-14  1.736482e-01
   outer loop
     vertex -2.307523e-01 -1.114396e-01  2.006113e-01
     vertex -2.303416e-01 -1.138113e-01  1.982823e-01
     vertex -2.302472e-01 -1.110959e-01  1.977466e-01
   endloop
 endfacet
 facet normal  9.848078e-01 -4.448084e-14  1.736482e-01
   outer loop
     vertex -2.301549e-01 -1.188275e-01  1.972233e-01
     vertex -2.296680e-01 -1.187774e-01  1.944620e-01
     vertex -2.299622e-01 -1.160216e-01  1.961303e-01
   endloop
 endfacet
 facet normal  9.848078e-01 -5.747618e-14  1.736482e-01
   outer loop
     vertex -2.293072e-01 -1.152239e-01  1.924154e-01
     vertex -2.287421e-01 -1.171059e-01  1.892108e-01
     vertex -2.287839e-01 -1.144973e-01  1.894478e-01
   endloop
 endfacet
 facet normal  9.848078e-01 -5.760655e-14  1.736482e-01
   outer loop
     vertex -2.287421e-01 -1.171059e-01  1.892108e-01
     vertex -2.283947e-01 -1.151129e-01  1.872406e-01
     vertex -2.287839e-01 -1.144973e-01  1.894478e-01
   endloop
 endfacet
 facet normal  9.848078e-01 -4.859977e-14  1.736482e-01
   outer loop
     vertex -2.291422e-01 -1.193447e-01  1.914801e-01
     vertex -2.293072e-01 -1.152239e-01  1.924154e-01
     vertex -2.296680e-01 -1.187774e-01  1.944620e-01
   endloop
 endfacet
 facet normal  9.848078e-01 -4.423475e-14  1.736482e-01
   outer loop
     vertex -2.303416e-01 -1.138113e-01  1.982823e-01
     vertex -2.308099e-01 -1.147619e-01  2.009382e-01
     vertex -2.304556e-01 -1.167048e-01  1.989287e-01
   endloop
 endfacet
 facet normal  9.848078e-01 -4.813825e-14  1.736482e-01
   outer loop
     vertex -2.283795e-01 -1.093597e-01  1.871547e-01
     vertex -2.287124e-01 -1.069601e-01  1.890425e-01
     vertex -2.288693e-01 -1.099926e-01  1.899325e-01
   endloop
 endfacet
 facet normal  9.848078e-01 -4.892785e-14  1.736482e-01
   outer loop
     vertex -2.283795e-01 -1.093597e-01  1.871547e-01
     vertex -2.288693e-01 -1.099926e-01  1.899325e-01
     vertex -2.285242e-01 -1.123380e-01  1.879750e-01
   endloop
 endfacet
 facet normal  9.848078e-01 -4.646473e-14  1.736482e-01
   outer loop
     vertex -2.288693e-01 -1.099926e-01  1.899325e-01
     vertex -2.287124e-01 -1.069601e-01  1.890425e-01
     vertex -2.292608e-01 -1.077342e-01  1.921527e-01
   endloop
 endfacet
 facet normal  9.848078e-01 -4.498664e-14  1.736482e-01
   outer loop
     vertex -2.288693e-01 -1.099926e-01  1.899325e-01
     vertex -2.292608e-01 -1.077342e-01  1.921527e-01
     vertex -2.293661e-01 -1.111109e-01  1.927495e-01
   endloop
 endfacet
 facet normal  9.848078e-01 -4.462763e-14  1.736482e-01
   outer loop
     vertex -2.304556e-01 -1.167048e-01  1.989287e-01
     vertex -2.299622e-01 -1.160216e-01  1.961303e-01
     vertex -2.303416e-01 -1.138113e-01  1.982823e-01
   endloop
 endfacet
 facet normal  9.848078e-01 -4.120127e-14  1.736482e-01
   outer loop
     vertex -2.283947e-01 -1.151129e-01  1.872406e-01
     vertex -2.285242e-01 -1.123380e-01  1.879750e-01
     vertex -2.287839e-01 -1.144973e-01  1.894478e-01
   endloop
 endfacet
 facet normal  9.848078e-01 -4.969905e-14  1.736482e-01
   outer loop
     vertex -2.296680e-01 -1.187774e-01  1.944620e-01
     vertex -2.293072e-01 -1.152239e-01  1.924154e-01
     vertex -2.299622e-01 -1.160216e-01  1.961303e-01
   endloop
 endfacet
 facet normal  9.848078e-01 -5.266270e-14  1.736482e-01
   outer loop
     vertex -2.285242e-01 -1.123380e-01  1.879750e-01
     vertex -2.288693e-01 -1.099926e-01  1.899325e-01
     vertex -2.289742e-01 -1.125504e-01  1.905271e-01
   endloop
 endfacet
 facet normal  9.848078e-01 -3.900778e-14  1.736482e-01
   outer loop
     vertex -2.287839e-01 -1.144973e-01  1.894478e-01
     vertex -2.285242e-01 -1.123380e-01  1.879750e-01
     vertex -2.289742e-01 -1.125504e-01  1.905271e-01
   endloop
 endfacet
 facet normal  9.848078e-01 -5.347116e-14  1.736482e-01
   outer loop
     vertex -2.288693e-01 -1.099926e-01  1.899325e-01
     vertex -2.293661e-01 -1.111109e-01  1.927495e-01
     vertex -2.289742e-01 -1.125504e-01  1.905271e-01
   endloop
 endfacet
 facet normal  9.848078e-01 -4.722278e-14  1.736482e-01
   outer loop
     vertex -2.303416e-01 -1.138113e-01  1.982823e-01
     vertex -2.299622e-01 -1.160216e-01  1.961303e-01
     vertex -2.298427e-01 -1.127139e-01  1.954527e-01
   endloop
 endfacet
 facet normal  9.848078e-01 -4.730171e-14  1.736482e-01
   outer loop
     vertex -2.299622e-01 -1.160216e-01  1.961303e-01
     vertex -2.293072e-01 -1.152239e-01  1.924154e-01
     vertex -2.298427e-01 -1.127139e-01  1.954527e-01
   endloop
 endfacet
 facet normal  9.848078e-01 -4.991031e-14  1.736482e-01
   outer loop
     vertex -2.303416e-01 -1.138113e-01  1.982823e-01
     vertex -2.298427e-01 -1.127139e-01  1.954527e-01
     vertex -2.302472e-01 -1.110959e-01  1.977466e-01
   endloop
 endfacet
 facet normal  9.848078e-01 -4.559847e-14  1.736482e-01
   outer loop
     vertex -2.293661e-01 -1.111109e-01  1.927495e-01
     vertex -2.292608e-01 -1.077342e-01  1.921527e-01
     vertex -2.298575e-01 -1.089274e-01  1.955366e-01
   endloop
 endfacet
 facet normal  9.848078e-01 -4.994392e-14  1.736482e-01
   outer loop
     vertex -2.298427e-01 -1.127139e-01  1.954527e-01
     vertex -2.293072e-01 -1.152239e-01  1.924154e-01
     vertex -2.293661e-01 -1.111109e-01  1.927495e-01
   endloop
 endfacet
 facet normal  9.848078e-01 -5.188324e-14  1.736482e-01
   outer loop
     vertex -2.293661e-01 -1.111109e-01  1.927495e-01
     vertex -2.298575e-01 -1.089274e-01  1.955366e-01
     vertex -2.298427e-01 -1.127139e-01  1.954527e-01
   endloop
 endfacet
 facet normal  9.848078e-01 -4.118833e-14  1.736482e-01
   outer loop
     vertex -2.293072e-01 -1.152239e-01  1.924154e-01
     vertex -2.287839e-01 -1.144973e-01  1.894478e-01
     vertex -2.289742e-01 -1.125504e-01  1.905271e-01
   endloop
 endfacet
 facet normal  9.848078e-01 -5.186538e-14  1.736482e-01
   outer loop
     vertex -2.298427e-01 -1.127139e-01  1.954527e-01
     vertex -2.298575e-01 -1.089274e-01  1.955366e-01
     vertex -2.302472e-01 -1.110959e-01  1.977466e-01
   endloop
 endfacet
 facet normal  9.848078e-01 -4.921496e-14  1.736482e-01
   outer loop
     vertex -2.293661e-01 -1.111109e-01  1.927495e-01
     vertex -2.293072e-01 -1.152239e-01  1.924154e-01
     vertex -2.289742e-01 -1.125504e-01  1.905271e-01
   endloop
 endfacet
endsolid Inlet4
